<svg width="15" height="24" viewBox="0 0 15 24" fill="none" xmlns="http://www.w3.org/2000/svg">
<path d="M14.5 24H0.5V0H14.5V24Z" stroke="#E5E7EB"/>
<g clip-path="url(#clip0_4663_15359)">
<path d="M5 7.5V9H10V7.5C10 6.11875 8.88125 5 7.5 5C6.11875 5 5 6.11875 5 7.5ZM3 9V7.5C3 5.01562 5.01562 3 7.5 3C9.98438 3 12 5.01562 12 7.5V9H12.5C13.6031 9 14.5 9.89687 14.5 11V17C14.5 18.1031 13.6031 19 12.5 19H2.5C1.39688 19 0.5 18.1031 0.5 17V11C0.5 9.89687 1.39688 9 2.5 9H3Z" fill="#9CA3AF"/>
</g>
<defs>
<clipPath id="clip0_4663_15359">
<path d="M0.5 3H14.5V19H0.5V3Z" fill="white"/>
</clipPath>
</defs>
</svg>
