<svg width="20" height="21" viewBox="0 0 20 21" fill="none" xmlns="http://www.w3.org/2000/svg">
<g clip-path="url(#clip0_4663_15381)">
<path d="M19.6875 10.7266C19.6875 16.2539 15.9023 20.1875 10.3125 20.1875C4.95312 20.1875 0.625 15.8594 0.625 10.5C0.625 5.14062 4.95312 0.8125 10.3125 0.8125C12.9219 0.8125 15.1172 1.76953 16.8086 3.34766L14.1719 5.88281C10.7227 2.55469 4.30859 5.05469 4.30859 10.5C4.30859 13.8789 7.00781 16.6172 10.3125 16.6172C14.1484 16.6172 15.5859 13.8672 15.8125 12.4414H10.3125V9.10938H19.5352C19.625 9.60547 19.6875 10.082 19.6875 10.7266Z" fill="#EF4444"/>
</g>
<defs>
<clipPath id="clip0_4663_15381">
<path d="M0.625 0.5H19.6875V20.5H0.625V0.5Z" fill="white"/>
</clipPath>
</defs>
</svg>
