<svg width="16" height="21" viewBox="0 0 16 21" fill="none" xmlns="http://www.w3.org/2000/svg">
<g clip-path="url(#clip0_4663_15391)">
<path d="M12.7617 10.9961C12.7539 9.5625 13.4023 8.48047 14.7148 7.68359C13.9805 6.63281 12.8711 6.05469 11.4062 5.94141C10.0195 5.83203 8.50391 6.75 7.94922 6.75C7.36328 6.75 6.01953 5.98047 4.96484 5.98047C2.78516 6.01562 0.46875 7.71875 0.46875 11.1836C0.46875 12.207 0.65625 13.2643 1.03125 14.3555C1.53125 15.7891 3.33594 19.3047 5.21875 19.2461C6.20312 19.2227 6.89844 18.5469 8.17969 18.5469C9.42188 18.5469 10.0664 19.2461 11.1641 19.2461C13.0625 19.2188 14.6953 16.0234 15.1719 14.5859C12.625 13.3867 12.7617 11.0703 12.7617 10.9961ZM10.5508 4.58203C11.6172 3.31641 11.5195 2.16406 11.4883 1.75C10.5469 1.80469 9.45703 2.39062 8.83594 3.11328C8.15234 3.88672 7.75 4.84375 7.83594 5.92188C8.85547 6 9.78516 5.47656 10.5508 4.58203Z" fill="black"/>
</g>
<defs>
<clipPath id="clip0_4663_15391">
<path d="M0.3125 0.5H15.3125V20.5H0.3125V0.5Z" fill="white"/>
</clipPath>
</defs>
</svg>
