<svg width="21" height="21" viewBox="0 0 21 21" fill="none" xmlns="http://www.w3.org/2000/svg">
<g clip-path="url(#clip0_4663_15386)">
<path d="M20.1719 10.5C20.1719 5.14844 15.8359 0.8125 10.4844 0.8125C5.13281 0.8125 0.796875 5.14844 0.796875 10.5C0.796875 15.3352 4.33945 19.343 8.9707 20.0703V13.3004H6.50977V10.5H8.9707V8.36562C8.9707 5.93789 10.416 4.59687 12.6297 4.59687C13.6898 4.59687 14.7984 4.78594 14.7984 4.78594V7.16875H13.5766C12.3734 7.16875 11.998 7.91562 11.998 8.68164V10.5H14.6848L14.2551 13.3004H11.998V20.0703C16.6293 19.343 20.1719 15.3352 20.1719 10.5Z" fill="#2563EB"/>
</g>
<defs>
<clipPath id="clip0_4663_15386">
<path d="M0.484375 0.5H20.4844V20.5H0.484375V0.5Z" fill="white"/>
</clipPath>
</defs>
</svg>
