<svg width="32" height="29" viewBox="0 0 32 29" fill="none" xmlns="http://www.w3.org/2000/svg">
<g clip-path="url(#clip0_4672_15749)">
<path d="M17.573 1.85435C17.2846 1.25586 16.6752 0.875 16.006 0.875C15.3368 0.875 14.7328 1.25586 14.439 1.85435L10.9406 9.0526L3.12751 10.2061C2.47461 10.304 1.93053 10.761 1.72922 11.3867C1.5279 12.0124 1.69113 12.7034 2.15904 13.1659L7.82841 18.7754L6.48996 26.7027C6.38114 27.3556 6.65318 28.0194 7.19183 28.4057C7.73047 28.792 8.44322 28.841 9.03083 28.5308L16.0114 24.8039L22.9921 28.5308C23.5797 28.841 24.2924 28.7974 24.8311 28.4057C25.3697 28.014 25.6417 27.3556 25.5329 26.7027L24.189 18.7754L29.8584 13.1659C30.3263 12.7034 30.495 12.0124 30.2882 11.3867C30.0815 10.761 29.5428 10.304 28.8899 10.2061L21.0714 9.0526L17.573 1.85435Z" fill="#FDE047"/>
</g>
<defs>
<clipPath id="clip0_4672_15749">
<path d="M0.330078 0.875H31.6694V28.7321H0.330078V0.875Z" fill="white"/>
</clipPath>
</defs>
</svg>
