<svg width="64" height="65" viewBox="0 0 64 65" fill="none" xmlns="http://www.w3.org/2000/svg">
<mask id="path-1-inside-1_4788_19037" fill="white">
<path d="M0 32.1582C0 14.4851 14.3269 0.158203 32 0.158203C49.6731 0.158203 64 14.4851 64 32.1582C64 49.8313 49.6731 64.1582 32 64.1582C14.3269 64.1582 0 49.8313 0 32.1582Z"/>
</mask>
<path d="M0 32.1582C0 14.4851 14.3269 0.158203 32 0.158203C49.6731 0.158203 64 14.4851 64 32.1582C64 49.8313 49.6731 64.1582 32 64.1582C14.3269 64.1582 0 49.8313 0 32.1582Z" fill="#BFD6F6"/>
<path d="M32 64.1582V63.1582C14.8792 63.1582 1 49.279 1 32.1582H0H-1C-1 50.3836 13.7746 65.1582 32 65.1582V64.1582ZM64 32.1582H63C63 49.279 49.1208 63.1582 32 63.1582V64.1582V65.1582C50.2254 65.1582 65 50.3836 65 32.1582H64ZM32 0.158203V1.1582C49.1208 1.1582 63 15.0374 63 32.1582H64H65C65 13.9328 50.2254 -0.841797 32 -0.841797V0.158203ZM32 0.158203V-0.841797C13.7746 -0.841797 -1 13.9328 -1 32.1582H0H1C1 15.0374 14.8792 1.1582 32 1.1582V0.158203Z" fill="#4A4035" mask="url(#path-1-inside-1_4788_19037)"/>
<path d="M19.4902 21.4521C20.2227 20.6807 21.1016 20.085 22.127 19.665C23.1523 19.2354 24.2803 19.0205 25.5107 19.0205C26.7314 19.0205 27.7959 19.2451 28.7041 19.6943C29.6221 20.1338 30.3789 20.6123 30.9746 21.1299C31.1797 21.3057 31.3652 21.4814 31.5312 21.6572C31.707 21.8232 31.8633 21.9844 32 22.1406C32.1367 21.9844 32.2881 21.8232 32.4541 21.6572C32.6299 21.4814 32.8203 21.3057 33.0254 21.1299C33.6309 20.6123 34.3877 20.1338 35.2959 19.6943C36.2139 19.2451 37.2832 19.0205 38.5039 19.0205C39.7246 19.0205 40.8477 19.2354 41.873 19.665C42.8984 20.085 43.7822 20.6807 44.5244 21.4521C46.0283 23.0342 46.7803 25.041 46.7803 27.4727C46.7803 28.6641 46.5654 29.8311 46.1357 30.9736C45.7061 32.1162 45.1543 33.2051 44.4805 34.2402C43.8164 35.2754 43.0596 36.2666 42.21 37.2139C41.3604 38.1611 40.501 39.04 39.6318 39.8506C38.7529 40.6611 37.8936 41.3984 37.0537 42.0625C36.2139 42.7266 35.4668 43.293 34.8125 43.7617C34.4805 44.0059 34.1777 44.2158 33.9043 44.3916C33.6309 44.5771 33.3965 44.7383 33.2012 44.875C33.0059 44.9922 32.8447 45.0898 32.7178 45.168C32.6689 45.207 32.6201 45.2363 32.5713 45.2559C32.542 45.2754 32.5127 45.29 32.4834 45.2998C32.4736 45.3096 32.4492 45.3242 32.4102 45.3438C32.3516 45.3633 32.3174 45.373 32.3076 45.373C32.2979 45.373 32.2637 45.3779 32.2051 45.3877C32.1465 45.4072 32.0781 45.417 32 45.417C31.9219 45.417 31.8535 45.4072 31.7949 45.3877C31.7461 45.3779 31.7119 45.373 31.6924 45.373C31.6826 45.373 31.6484 45.3633 31.5898 45.3438C31.5508 45.3242 31.5264 45.3096 31.5166 45.2998C31.4873 45.29 31.4629 45.2754 31.4434 45.2559C31.4043 45.2363 31.3506 45.207 31.2822 45.168C31.1553 45.0898 30.999 44.9922 30.8135 44.875C30.6084 44.7383 30.3691 44.5771 30.0957 44.3916C29.8223 44.2158 29.5244 44.0059 29.2021 43.7617C28.5381 43.293 27.7861 42.7266 26.9463 42.0625C26.1064 41.3984 25.252 40.6611 24.3828 39.8506L24.2656 39.748L25.1592 37.6826C25.3643 37.8877 25.584 38.0928 25.8184 38.2979C26.1504 38.6104 26.4922 38.918 26.8438 39.2207L27.3564 40.4365C27.542 40.8662 27.835 41.1494 28.2354 41.2861C28.6357 41.4326 29.0215 41.4375 29.3926 41.3008C29.5781 41.4375 29.7539 41.5645 29.9199 41.6816C30.0957 41.8086 30.2666 41.9307 30.4326 42.0479C30.7451 42.2725 31.0283 42.4727 31.2822 42.6484C31.5459 42.8242 31.7705 42.9756 31.9561 43.1025L32 43.1318L32.0586 43.1025C32.2344 42.9756 32.4541 42.8242 32.7178 42.6484C32.9814 42.4727 33.2695 42.2725 33.582 42.0479C34.2168 41.5986 34.9346 41.0566 35.7354 40.4219C36.5361 39.7871 37.3564 39.0791 38.1963 38.2979C38.9189 37.624 39.627 36.9111 40.3203 36.1592C41.0234 35.3975 41.6582 34.6113 42.2246 33.8008H35.1641V28.5273H44.5977C44.6465 28.166 44.6709 27.8145 44.6709 27.4727C44.6709 26.5254 44.5195 25.666 44.2168 24.8945C43.9238 24.123 43.5186 23.4639 43.001 22.917C42.4736 22.3701 41.8291 21.9355 41.0674 21.6133C40.3154 21.291 39.4609 21.1299 38.5039 21.1299C37.6055 21.1299 36.8145 21.2959 36.1309 21.6279C35.457 21.9502 34.8809 22.3164 34.4023 22.7266C34.168 22.9316 33.958 23.1367 33.7725 23.3418C33.5869 23.5371 33.4258 23.7129 33.2891 23.8691C33.2402 23.9277 33.1963 23.9863 33.1572 24.0449C33.1182 24.0938 33.0791 24.1426 33.04 24.1914L32.9814 24.2646C32.9131 24.3525 32.8643 24.4111 32.835 24.4404C32.7861 24.4893 32.7422 24.5332 32.7031 24.5723C32.6543 24.6113 32.5957 24.6504 32.5273 24.6895C32.498 24.709 32.4346 24.7383 32.3369 24.7773C32.249 24.8164 32.1367 24.8359 32 24.8359C31.8633 24.8359 31.7461 24.8164 31.6484 24.7773C31.5605 24.7383 31.502 24.709 31.4727 24.6895C31.4141 24.6602 31.3555 24.6211 31.2969 24.5723C31.248 24.5234 31.2041 24.4795 31.165 24.4404C31.1357 24.4111 31.0918 24.3525 31.0332 24.2646L30.96 24.1914C30.9307 24.1426 30.8916 24.0938 30.8428 24.0449C30.8037 23.9863 30.7598 23.9277 30.7109 23.8691C30.584 23.7129 30.4277 23.5371 30.2422 23.3418C30.0566 23.1367 29.8418 22.9316 29.5977 22.7266C29.1191 22.3164 28.5381 21.9502 27.8545 21.6279C27.1807 21.2959 26.3994 21.1299 25.5107 21.1299C24.5439 21.1299 23.6797 21.291 22.918 21.6133C22.166 21.9355 21.5312 22.3701 21.0137 22.917C20.3691 23.5908 19.9053 24.4062 19.6221 25.3633C19.5244 25.3633 19.4268 25.3633 19.3291 25.3633C18.5771 25.3633 17.9082 25.6025 17.3223 26.0811C17.5762 24.2451 18.2988 22.7021 19.4902 21.4521ZM19.3291 26.418C19.9248 26.418 20.501 26.5547 21.0576 26.8281C21.6143 27.0918 22.0977 27.3652 22.5078 27.6484V30.1094C22.5078 30.2559 22.5566 30.3828 22.6543 30.4902C22.7617 30.5879 22.8887 30.6367 23.0352 30.6367C23.1719 30.6367 23.2939 30.5879 23.4014 30.4902C23.5088 30.3828 23.5625 30.2559 23.5625 30.1094V28.5273C23.5625 28.2344 23.665 27.9854 23.8701 27.7803C24.0752 27.5752 24.3242 27.4727 24.6172 27.4727H26.7266C27.0195 27.4727 27.2686 27.5752 27.4736 27.7803C27.6787 27.9854 27.7812 28.2344 27.7812 28.5273V30.1094C27.7812 30.2559 27.8301 30.3828 27.9277 30.4902C28.0352 30.5879 28.1621 30.6367 28.3086 30.6367C28.4551 30.6367 28.5771 30.5879 28.6748 30.4902C28.7822 30.3828 28.8359 30.2559 28.8359 30.1094V27.6484C29.2363 27.3652 29.7148 27.0918 30.2715 26.8281C30.8379 26.5547 31.4141 26.418 32 26.418C32.5859 26.418 33.084 26.623 33.4941 27.0332C33.9043 27.4434 34.1094 27.9414 34.1094 28.5273V33.8008C34.1094 34.3867 33.9043 34.8848 33.4941 35.2949C33.084 35.7051 32.5859 35.9102 32 35.9102C31.9707 35.9102 31.9463 35.9102 31.9268 35.9102C31.8291 35.9102 31.7217 35.9053 31.6045 35.8955C31.0967 35.8369 30.6035 35.6904 30.125 35.4561C29.6562 35.2119 29.2412 34.9629 28.8799 34.709C28.7822 34.6406 28.6846 34.5674 28.5869 34.4893L28.5576 34.4746C28.3135 34.2891 28.123 34.1328 27.9863 34.0059C27.8496 33.8691 27.7812 33.8008 27.7812 33.8008C27.7812 34.2207 27.5957 34.5332 27.2246 34.7383C27.2344 34.748 27.2441 34.7578 27.2539 34.7676C27.2637 34.7676 27.2734 34.7725 27.2832 34.7822C27.3613 34.8506 27.4541 34.9336 27.5615 35.0312C27.6689 35.1191 27.7861 35.2119 27.9131 35.3096L27.9424 35.3389C28.0498 35.417 28.1572 35.4951 28.2646 35.5732C28.6357 35.8271 29.0801 36.0908 29.5977 36.3643C30.125 36.6377 30.6963 36.8232 31.3115 36.9209L31.9854 38.415C32.083 38.6299 32.0488 38.8252 31.8828 39.001C31.7266 39.167 31.5361 39.2061 31.3115 39.1182L30.374 38.752C30.2471 38.6934 30.1152 38.6934 29.9785 38.752C29.8418 38.8105 29.749 38.9082 29.7002 39.0449L29.3047 40.0117C29.2168 40.2266 29.0557 40.334 28.8213 40.334C28.5869 40.3438 28.4258 40.2412 28.3379 40.0264L26.126 34.8555H25.2178L23.0059 40.0264C22.9082 40.2412 22.7422 40.3438 22.5078 40.334C22.2734 40.334 22.1123 40.2266 22.0244 40.0117L21.6436 39.0449C21.585 38.9082 21.4873 38.8105 21.3506 38.752C21.2236 38.6934 21.0918 38.6934 20.9551 38.752L20.0322 39.1182C19.8076 39.2061 19.6123 39.167 19.4463 39.001C19.2803 38.8252 19.2461 38.6299 19.3438 38.415L20.0322 36.9209C20.6377 36.8232 21.2041 36.6377 21.7314 36.3643C22.2588 36.0908 22.7031 35.8271 23.0645 35.5732C23.1816 35.4951 23.2891 35.417 23.3867 35.3389L23.416 35.3096C23.5527 35.2119 23.6748 35.1191 23.7822 35.0312C23.8896 34.9336 23.9775 34.8506 24.0459 34.7822C24.0654 34.7725 24.0752 34.7676 24.0752 34.7676C24.085 34.7578 24.0947 34.748 24.1045 34.7383C23.7432 34.5332 23.5625 34.2207 23.5625 33.8008C23.5625 33.8008 23.4893 33.8691 23.3428 34.0059C23.2061 34.1328 23.0156 34.2891 22.7715 34.4746L22.7568 34.4893C22.6494 34.5674 22.5518 34.6406 22.4639 34.709C22.1025 34.9629 21.6826 35.2119 21.2041 35.4561C20.7354 35.6904 20.2422 35.8369 19.7246 35.8955C19.6172 35.9053 19.5098 35.9102 19.4023 35.9102C19.3926 35.9102 19.3682 35.9102 19.3291 35.9102C18.7529 35.9102 18.2549 35.7051 17.835 35.2949C17.4248 34.8848 17.2197 34.3867 17.2197 33.8008V28.5273C17.2197 27.9414 17.4248 27.4434 17.835 27.0332C18.2549 26.623 18.7529 26.418 19.3291 26.418ZM21.9072 33.8008C21.7998 33.7227 21.7168 33.6641 21.6582 33.625C21.2871 33.3809 20.8965 33.1758 20.4863 33.0098C20.0859 32.834 19.7002 32.7461 19.3291 32.7461C19.0361 32.7461 18.7871 32.8486 18.582 33.0537C18.377 33.2588 18.2744 33.5078 18.2744 33.8008C18.2744 34.0938 18.377 34.3428 18.582 34.5479C18.7871 34.7529 19.0361 34.8555 19.3291 34.8555C19.7002 34.8555 20.0859 34.7725 20.4863 34.6064C20.8965 34.4404 21.2871 34.2305 21.6582 33.9766C21.7168 33.9375 21.7998 33.8789 21.9072 33.8008ZM29.4365 33.8008C29.5244 33.8691 29.6074 33.9277 29.6855 33.9766C30.0566 34.2305 30.4424 34.4404 30.8428 34.6064C31.2432 34.7725 31.6289 34.8555 32 34.8555C32.293 34.8555 32.542 34.7529 32.7471 34.5479C32.9521 34.3428 33.0547 34.0938 33.0547 33.8008C33.0547 33.5078 32.9521 33.2588 32.7471 33.0537C32.542 32.8486 32.293 32.7461 32 32.7461C31.6289 32.7461 31.2432 32.834 30.8428 33.0098C30.4424 33.1758 30.0566 33.3809 29.6855 33.625C29.6074 33.6738 29.5244 33.7324 29.4365 33.8008Z" fill="#4A4035"/>
</svg>
