<svg width="18" height="19" viewBox="0 0 18 19" fill="none" xmlns="http://www.w3.org/2000/svg">
<path d="M15.75 8.20273H15.1615C15.0201 6.66631 14.3099 5.23813 13.17 4.1983C12.0301 3.15848 10.5429 2.58203 9 2.58203C7.4571 2.58203 5.96986 3.15848 4.82998 4.1983C3.69011 5.23813 2.97985 6.66631 2.83852 8.20273H2.25C2.10082 8.20273 1.95774 8.26199 1.85225 8.36748C1.74676 8.47297 1.6875 8.61604 1.6875 8.76523C1.68997 10.1029 2.05811 11.4145 2.75211 12.5581C3.44611 13.7017 4.43955 14.6338 5.625 15.2537V15.5152C5.625 15.8136 5.74353 16.0997 5.95451 16.3107C6.16548 16.5217 6.45163 16.6402 6.75 16.6402H11.25C11.5484 16.6402 11.8345 16.5217 12.0455 16.3107C12.2565 16.0997 12.375 15.8136 12.375 15.5152V15.2537C13.5605 14.6338 14.5539 13.7017 15.2479 12.5581C15.9419 11.4145 16.31 10.1029 16.3125 8.76523C16.3125 8.61604 16.2532 8.47297 16.1477 8.36748C16.0423 8.26199 15.8992 8.20273 15.75 8.20273ZM12.1978 4.8439C12.3267 4.94937 12.4502 5.0607 12.5684 5.17788C11.071 5.70463 9.83356 6.7872 9.1125 8.20132H7.03828C7.38985 7.21584 8.0371 6.36293 8.8916 5.75912C9.7461 5.1553 10.7662 4.83003 11.8125 4.82773C11.9412 4.82773 12.0698 4.83406 12.1978 4.8439ZM10.4147 8.20273C11.0967 7.1796 12.1284 6.44035 13.3165 6.12359C13.7049 6.75545 13.9487 7.46549 14.0302 8.20273H10.4147ZM9 3.70273C9.45138 3.70303 9.90069 3.7638 10.3359 3.88343C9.27593 4.14638 8.30396 4.68411 7.51801 5.44241C6.73205 6.20072 6.15987 7.15281 5.85914 8.20273H3.96984C4.10938 6.96583 4.69921 5.82354 5.6269 4.99362C6.5546 4.16371 7.75526 3.70421 9 3.70273Z" fill="#4D2B12"/>
</svg>
