<svg width="65" height="65" viewBox="0 0 65 65" fill="none" xmlns="http://www.w3.org/2000/svg">
<mask id="path-1-inside-1_4788_19045" fill="white">
<path d="M0.330078 32.1582C0.330078 14.4851 14.657 0.158203 32.3301 0.158203C50.0032 0.158203 64.3301 14.4851 64.3301 32.1582C64.3301 49.8313 50.0032 64.1582 32.3301 64.1582C14.657 64.1582 0.330078 49.8313 0.330078 32.1582Z"/>
</mask>
<path d="M0.330078 32.1582C0.330078 14.4851 14.657 0.158203 32.3301 0.158203C50.0032 0.158203 64.3301 14.4851 64.3301 32.1582C64.3301 49.8313 50.0032 64.1582 32.3301 64.1582C14.657 64.1582 0.330078 49.8313 0.330078 32.1582Z" fill="#BFD8B8"/>
<path d="M32.3301 64.1582V63.1582C15.2093 63.1582 1.33008 49.279 1.33008 32.1582H0.330078H-0.669922C-0.669922 50.3836 14.1047 65.1582 32.3301 65.1582V64.1582ZM64.3301 32.1582H63.3301C63.3301 49.279 49.4509 63.1582 32.3301 63.1582V64.1582V65.1582C50.5555 65.1582 65.3301 50.3836 65.3301 32.1582H64.3301ZM32.3301 0.158203V1.1582C49.4509 1.1582 63.3301 15.0374 63.3301 32.1582H64.3301H65.3301C65.3301 13.9328 50.5555 -0.841797 32.3301 -0.841797V0.158203ZM32.3301 0.158203V-0.841797C14.1047 -0.841797 -0.669922 13.9328 -0.669922 32.1582H0.330078H1.33008C1.33008 15.0374 15.2093 1.1582 32.3301 1.1582V0.158203Z" fill="#4A4035" mask="url(#path-1-inside-1_4788_19045)"/>
<path d="M30.748 22.1846H32.8574C33.1504 22.1846 33.3994 22.292 33.6045 22.5068C33.8096 22.7119 33.9121 22.9609 33.9121 23.2539V25.3633C33.9121 25.6562 33.8096 25.9053 33.6045 26.1104C33.3994 26.3154 33.1504 26.418 32.8574 26.418H30.748C30.4551 26.418 30.2061 26.3154 30.001 26.1104C29.7959 25.9053 29.6934 25.6562 29.6934 25.3633V23.2539C29.6934 22.9609 29.7959 22.7119 30.001 22.5068C30.2061 22.292 30.4551 22.1846 30.748 22.1846ZM25.4746 27.458H27.584C27.877 27.458 28.126 27.5654 28.3311 27.7803C28.5361 27.9854 28.6387 28.2344 28.6387 28.5273V30.6367C28.6387 30.9297 28.5361 31.1787 28.3311 31.3838C28.126 31.5889 27.877 31.6914 27.584 31.6914H25.4746C25.1816 31.6914 24.9326 31.5889 24.7275 31.3838C24.5225 31.1787 24.4199 30.9297 24.4199 30.6367V28.5273C24.4199 28.2344 24.5225 27.9854 24.7275 27.7803C24.9326 27.5654 25.1816 27.458 25.4746 27.458ZM29.6934 33.8008V35.9102C29.6934 36.2031 29.7959 36.4521 30.001 36.6572C30.2158 36.8623 30.4697 36.9648 30.7627 36.9648H32.8721C33.165 36.9648 33.4141 36.8623 33.6191 36.6572C33.8242 36.4521 33.9268 36.2031 33.9268 35.9102V33.8008C33.9268 33.5078 33.8242 33.2588 33.6191 33.0537C33.4141 32.8486 33.165 32.7461 32.8721 32.7461H30.7627C30.4697 32.7461 30.2158 32.8486 30.001 33.0537C29.7959 33.2588 29.6934 33.5078 29.6934 33.8008ZM25.4746 22.1846H27.584C27.877 22.1846 28.126 22.292 28.3311 22.5068C28.5361 22.7119 28.6387 22.9609 28.6387 23.2539V25.3633C28.6387 25.6562 28.5361 25.9053 28.3311 26.1104C28.126 26.3154 27.877 26.418 27.584 26.418H25.4746C25.1816 26.418 24.9326 26.3154 24.7275 26.1104C24.5225 25.9053 24.4199 25.6562 24.4199 25.3633V23.2539C24.4199 22.9609 24.5225 22.7119 24.7275 22.5068C24.9326 22.292 25.1816 22.1846 25.4746 22.1846ZM25.4746 32.7461H27.584C27.877 32.7461 28.126 32.8535 28.3311 33.0684C28.5361 33.2734 28.6387 33.5225 28.6387 33.8154V35.9248C28.6387 36.2178 28.5361 36.4668 28.3311 36.6719C28.126 36.877 27.877 36.9795 27.584 36.9795H25.4746C25.1816 36.9795 24.9326 36.877 24.7275 36.6719C24.5225 36.4668 24.4199 36.2178 24.4199 35.9248V33.8154C24.4199 33.5225 24.5225 33.2734 24.7275 33.0684C24.9326 32.8535 25.1816 32.7461 25.4746 32.7461ZM34.9668 28.5273V30.6367C34.9668 30.9297 35.0693 31.1787 35.2744 31.3838C35.4893 31.5889 35.7432 31.6914 36.0361 31.6914H38.1455C38.4385 31.6914 38.6875 31.5889 38.8926 31.3838C39.0977 31.1787 39.2002 30.9297 39.2002 30.6367V28.5273C39.2002 28.2344 39.0977 27.9854 38.8926 27.7803C38.6875 27.5752 38.4385 27.4727 38.1455 27.4727H36.0361C35.7432 27.4727 35.4893 27.5752 35.2744 27.7803C35.0693 27.9854 34.9668 28.2344 34.9668 28.5273ZM34.9668 23.2393V25.3486C34.9668 25.6416 35.0693 25.8906 35.2744 26.0957C35.4893 26.3008 35.7432 26.4033 36.0361 26.4033H38.1455C38.4385 26.4033 38.6875 26.3008 38.8926 26.0957C39.0977 25.8906 39.2002 25.6416 39.2002 25.3486V23.2393C39.2002 22.9463 39.0977 22.6973 38.8926 22.4922C38.6875 22.2871 38.4385 22.1846 38.1455 22.1846H36.0361C35.7432 22.1846 35.4893 22.2871 35.2744 22.4922C35.0693 22.6973 34.9668 22.9463 34.9668 23.2393ZM29.6934 28.5273V30.6367C29.6934 30.9297 29.7959 31.1787 30.001 31.3838C30.2158 31.5889 30.4697 31.6914 30.7627 31.6914H32.8721C33.165 31.6914 33.4141 31.5889 33.6191 31.3838C33.8242 31.1787 33.9268 30.9297 33.9268 30.6367V28.5273C33.9268 28.2344 33.8242 27.9854 33.6191 27.7803C33.4141 27.5752 33.165 27.4727 32.8721 27.4727H30.7627C30.4697 27.4727 30.2158 27.5752 30.001 27.7803C29.7959 27.9854 29.6934 28.2344 29.6934 28.5273ZM36.0215 32.7461H38.1309C38.4238 32.7461 38.6729 32.8535 38.8779 33.0684C39.083 33.2734 39.1855 33.5225 39.1855 33.8154V35.9248C39.1855 36.2178 39.083 36.4668 38.8779 36.6719C38.6729 36.877 38.4238 36.9795 38.1309 36.9795H36.0215C35.7285 36.9795 35.4795 36.877 35.2744 36.6719C35.0693 36.4668 34.9668 36.2178 34.9668 35.9248V33.8154C34.9668 33.5225 35.0693 33.2734 35.2744 33.0684C35.4795 32.8535 35.7285 32.7461 36.0215 32.7461ZM24.9473 14.8018H38.6729C39.542 14.8018 40.2842 15.1143 40.8994 15.7393C41.5244 16.3545 41.8369 17.0967 41.8369 17.9658V41.1982C41.8369 42.0674 41.5244 42.8096 40.8994 43.4248C40.2842 44.0498 39.542 44.3623 38.6729 44.3623H24.9473C24.0684 44.3623 23.3164 44.0498 22.6914 43.4248C22.0762 42.8096 21.7686 42.0674 21.7686 41.1982V17.9658C21.7686 17.0967 22.0762 16.3545 22.6914 15.7393C23.3164 15.1143 24.0684 14.8018 24.9473 14.8018ZM40.7822 19.0205H22.8379V40.1436H40.7822V19.0205Z" fill="#4A4035"/>
</svg>
