<svg width="88" height="88" viewBox="0 0 88 88" fill="none" xmlns="http://www.w3.org/2000/svg">
<path d="M28.2175 21.469C30.337 22.1379 32.1478 23.5419 33.3235 25.4281C34.4992 27.3142 34.9625 29.5582 34.6298 31.7557C34.6302 31.7647 34.6339 31.7731 34.6401 31.7795L58.6862 41.2193C58.6862 41.2193 58.6862 41.2193 58.7052 41.211C59.5021 40.0561 60.5487 39.0955 61.7675 38.4003C62.9863 37.7051 64.346 37.2932 65.7457 37.1953C67.1454 37.0973 68.5492 37.3157 69.8529 37.8343C71.1567 38.3529 72.327 39.1583 73.277 40.1909C74.2269 41.2235 74.9323 42.4567 75.3406 43.7991C75.7489 45.1415 75.8498 46.5586 75.6357 47.9453C75.4216 49.332 74.8981 50.6527 74.1039 51.8094C73.3098 52.9661 72.2654 53.9292 71.0482 54.6273C71.4653 55.967 71.5753 57.3834 71.3703 58.7714C71.1652 60.1595 70.6503 61.4835 69.8637 62.6454C69.077 63.8073 68.0389 64.7772 66.8263 65.4831C65.6137 66.189 64.2577 66.6129 62.859 66.7232C61.4602 66.8336 60.0545 66.6276 58.7462 66.1205C57.438 65.6135 56.2606 64.8184 55.3015 63.7942C54.3424 62.7701 53.6263 61.5431 53.2061 60.2044C52.7859 58.8657 52.6725 57.4495 52.8743 56.061C52.8739 56.0521 52.8702 56.0436 52.864 56.0372L28.8179 46.5974C28.8179 46.5974 28.8179 46.5974 28.7989 46.6057C28.002 47.7606 26.9554 48.7213 25.7366 49.4164C24.5178 50.1116 23.1581 50.5235 21.7584 50.6215C20.3587 50.7194 18.955 50.501 17.6512 49.9825C16.3474 49.4639 15.1771 48.6584 14.2272 47.6258C13.2772 46.5932 12.5718 45.36 12.1635 44.0176C11.7552 42.6752 11.6543 41.2581 11.8684 39.8714C12.0825 38.4848 12.606 37.1641 13.4002 36.0073C14.1943 34.8506 15.2387 33.8875 16.4559 33.1895C15.9389 31.5551 15.8813 29.8101 16.2895 28.1452C16.6976 26.4804 17.5557 24.9598 18.7699 23.7498C19.9841 22.5399 21.5076 21.6871 23.1739 21.2848C24.8402 20.8826 26.585 20.9463 28.2175 21.469Z" fill="#BFD8B8"/>
</svg>
