<svg width="16" height="17" viewBox="0 0 16 17" fill="none" xmlns="http://www.w3.org/2000/svg">
<path d="M14 8.39016V14.3902C14 14.5228 13.9473 14.6499 13.8536 14.7437C13.7598 14.8375 13.6326 14.8902 13.5 14.8902H10C9.86739 14.8902 9.74021 14.8375 9.64645 14.7437C9.55268 14.6499 9.5 14.5228 9.5 14.3902V11.1402C9.5 11.0739 9.47366 11.0103 9.42678 10.9634C9.37989 10.9165 9.3163 10.8902 9.25 10.8902H6.75C6.6837 10.8902 6.62011 10.9165 6.57322 10.9634C6.52634 11.0103 6.5 11.0739 6.5 11.1402V14.3902C6.5 14.5228 6.44732 14.6499 6.35355 14.7437C6.25979 14.8375 6.13261 14.8902 6 14.8902H2.5C2.36739 14.8902 2.24021 14.8375 2.14645 14.7437C2.05268 14.6499 2 14.5228 2 14.3902V8.39016C2.00012 8.12499 2.10556 7.87073 2.29312 7.68329L7.29313 2.68329C7.48064 2.49589 7.7349 2.39062 8 2.39062C8.2651 2.39062 8.51936 2.49589 8.70687 2.68329L13.7069 7.68329C13.8944 7.87073 13.9999 8.12499 14 8.39016Z" fill="#4D2B12"/>
</svg>
