<svg width="56" height="56" viewBox="0 0 56 56" fill="none" xmlns="http://www.w3.org/2000/svg">
<rect width="56" height="56" rx="28" fill="#BFD6F6"/>
<path d="M30.4112 40.056C29.4965 40.056 28.7872 39.776 28.2832 39.216C27.7792 38.656 27.5272 37.9653 27.5272 37.144V27.12H26.9672C26.8365 27.5493 26.5565 27.932 26.1272 28.268C25.6978 28.604 25.1565 28.772 24.5032 28.772C23.7938 28.772 23.1685 28.5387 22.6272 28.072C22.1045 27.5867 21.8432 26.9147 21.8432 26.056C21.8432 25.4027 21.9925 24.852 22.2912 24.404C22.5898 23.956 22.9725 23.5173 23.4392 23.088L25.4832 21.268C26.1925 20.6333 26.8552 20.176 27.4712 19.896C28.0872 19.5973 28.7965 19.448 29.5992 19.448C30.2525 19.448 30.8592 19.588 31.4192 19.868C31.9792 20.148 32.4272 20.5867 32.7632 21.184C33.1178 21.7627 33.2952 22.528 33.2952 23.48V37.144C33.2952 37.9653 33.0525 38.656 32.5672 39.216C32.0818 39.776 31.3632 40.056 30.4112 40.056Z" fill="white"/>
</svg>
