<svg width="56" height="56" viewBox="0 0 56 56" fill="none" xmlns="http://www.w3.org/2000/svg">
<rect width="56" height="56" rx="28" fill="#FEC7E4"/>
<path d="M24.7647 40C23.9247 40 23.1407 39.9067 22.4127 39.72C21.7034 39.5333 21.1247 39.1787 20.6767 38.656C20.2287 38.1333 20.0047 37.3587 20.0047 36.332C20.0047 35.4733 20.2007 34.7547 20.5927 34.176C20.9847 33.5973 21.47 33.1027 22.0487 32.692C22.6274 32.2813 23.1874 31.908 23.7287 31.572L28.0687 28.856C28.778 28.408 29.2447 28.0347 29.4687 27.736C29.6927 27.4373 29.8047 27.1107 29.8047 26.756C29.8047 26.4387 29.702 26.168 29.4967 25.944C29.31 25.72 28.862 25.608 28.1527 25.608C27.462 25.608 26.734 25.6827 25.9687 25.832C25.2034 25.9813 24.466 26.056 23.7567 26.056C22.73 26.056 21.89 25.8133 21.2367 25.328C20.602 24.824 20.2847 24.0867 20.2847 23.116C20.2847 22.1827 20.6207 21.4547 21.2927 20.932C21.9647 20.3907 22.87 20.008 24.0087 19.784C25.166 19.56 26.454 19.448 27.8727 19.448C30.1687 19.448 31.942 19.8773 33.1927 20.736C34.462 21.5947 35.0967 22.9293 35.0967 24.74C35.0967 25.9907 34.7327 27.0547 34.0047 27.932C33.2954 28.8093 32.306 29.668 31.0367 30.508L25.8567 33.924H32.2687C33.314 33.924 34.1354 34.1853 34.7327 34.708C35.3487 35.212 35.6567 35.968 35.6567 36.976C35.6567 37.984 35.3487 38.74 34.7327 39.244C34.1354 39.748 33.314 40 32.2687 40H24.7647Z" fill="white"/>
</svg>
