<svg width="56" height="56" viewBox="0 0 56 56" fill="none" xmlns="http://www.w3.org/2000/svg">
<rect width="56" height="56" rx="28" fill="#BFD8B8"/>
<path d="M27.8805 39.972C26.5365 39.9533 25.2858 39.8413 24.1285 39.636C22.9898 39.4307 22.0658 39.0573 21.3565 38.516C20.6658 37.9747 20.3205 37.2187 20.3205 36.248C20.3205 35.2587 20.5818 34.5027 21.1045 33.98C21.6458 33.4387 22.3178 33.168 23.1205 33.168C24.1285 33.168 25.0151 33.2333 25.7805 33.364C26.5645 33.4947 27.4138 33.56 28.3285 33.56C29.1125 33.56 29.6351 33.4387 29.8965 33.196C30.1765 32.9533 30.3165 32.6173 30.3165 32.188C30.3165 31.2733 29.5791 30.816 28.1045 30.816H26.5085C25.8738 30.816 25.4165 30.6667 25.1365 30.368C24.8565 30.0507 24.7165 29.6773 24.7165 29.248C24.7165 28.8 24.8565 28.4267 25.1365 28.128C25.4165 27.8293 25.8738 27.68 26.5085 27.68H28.1045C28.7951 27.68 29.2525 27.5493 29.4765 27.288C29.7005 27.008 29.8125 26.6627 29.8125 26.252C29.8125 25.916 29.6911 25.6547 29.4485 25.468C29.2058 25.2813 28.7765 25.188 28.1605 25.188C27.4138 25.188 26.6578 25.2813 25.8925 25.468C25.1271 25.6547 24.3338 25.748 23.5125 25.748C22.6351 25.748 21.8885 25.5613 21.2725 25.188C20.6751 24.796 20.3765 24.0587 20.3765 22.976C20.3765 22.2293 20.5911 21.632 21.0205 21.184C21.4685 20.7173 22.0658 20.3627 22.8125 20.12C23.5591 19.8587 24.3805 19.6813 25.2765 19.588C26.1911 19.4947 27.1245 19.448 28.0765 19.448C29.4205 19.448 30.6431 19.616 31.7445 19.952C32.8458 20.2693 33.7231 20.792 34.3765 21.52C35.0485 22.248 35.3845 23.2373 35.3845 24.488C35.3845 25.8507 34.9458 26.952 34.0685 27.792C33.2098 28.6133 32.0711 29.024 30.6525 29.024V29.64C31.6045 29.64 32.4538 29.7987 33.2005 30.116C33.9658 30.4147 34.5725 30.9 35.0205 31.572C35.4685 32.244 35.6925 33.14 35.6925 34.26C35.6925 35.5293 35.3378 36.5933 34.6285 37.452C33.9191 38.292 32.9765 38.9267 31.8005 39.356C30.6245 39.7667 29.3178 39.972 27.8805 39.972Z" fill="white"/>
</svg>
