<svg width="56" height="57" viewBox="0 0 56 57" fill="none" xmlns="http://www.w3.org/2000/svg">
<rect y="0.158203" width="56" height="56" rx="28" fill="#BFD8B8"/>
<path d="M31.033 40.1582C30.0996 40.1582 29.3903 39.8969 28.905 39.3742C28.4196 38.8329 28.177 38.1609 28.177 37.3582V34.3902H27.757C27.6636 34.8009 27.4583 35.2209 27.141 35.6502C26.8236 36.0795 26.3663 36.4342 25.769 36.7142C25.1716 36.9942 24.4063 37.1342 23.473 37.1342C22.7263 37.1342 22.0076 36.9942 21.317 36.7142C20.645 36.4155 20.0943 35.9769 19.665 35.3982C19.2543 34.8009 19.049 34.0635 19.049 33.1862C19.049 32.4955 19.189 31.8329 19.469 31.1982C19.7676 30.5449 20.2343 29.7422 20.869 28.7902L24.453 23.4142C25.3116 22.1449 26.161 21.1929 27.001 20.5582C27.8596 19.9235 28.8116 19.6062 29.857 19.6062C30.585 19.6062 31.2476 19.7369 31.845 19.9982C32.461 20.2409 32.9556 20.6702 33.329 21.2862C33.7023 21.9022 33.889 22.7422 33.889 23.8062V31.0022C33.889 31.0022 33.9916 30.9929 34.197 30.9742C34.4023 30.9369 34.6263 30.9182 34.869 30.9182C35.5036 30.9182 36.0636 31.1049 36.549 31.4782C37.0343 31.8329 37.277 32.4769 37.277 33.4102C37.277 34.3249 37.0343 34.9689 36.549 35.3422C36.0636 35.7155 35.5036 35.9022 34.869 35.9022C34.6263 35.9022 34.4023 35.8835 34.197 35.8462C33.9916 35.8089 33.889 35.7902 33.889 35.7902V37.3582C33.889 38.1609 33.6463 38.8329 33.161 39.3742C32.6943 39.8969 31.985 40.1582 31.033 40.1582ZM24.621 30.5822C24.4903 30.7689 24.4716 30.9275 24.565 31.0582C24.6583 31.1889 24.7983 31.2542 24.985 31.2542H28.177V25.6542H27.869L24.621 30.5822Z" fill="white"/>
</svg>
