<svg width="56" height="57" viewBox="0 0 56 57" fill="none" xmlns="http://www.w3.org/2000/svg">
<rect y="0.158203" width="56" height="56" rx="28" fill="#BFD6F6"/>
<path d="M30.0384 28.0062C31.1584 28.0062 32.1478 28.1742 33.0064 28.5102C33.8838 28.8462 34.5651 29.4249 35.0504 30.2462C35.5544 31.0489 35.8064 32.1875 35.8064 33.6622C35.8064 34.9502 35.5731 36.0235 35.1064 36.8822C34.6584 37.7222 34.0424 38.3849 33.2584 38.8702C32.4931 39.3369 31.6251 39.6729 30.6544 39.8782C29.6838 40.0649 28.6758 40.1582 27.6304 40.1582C25.2598 40.1582 23.4211 39.8689 22.1144 39.2902C20.8078 38.6929 20.1544 37.6755 20.1544 36.2382C20.1544 35.2302 20.4904 34.4555 21.1624 33.9142C21.8344 33.3542 22.7024 33.1395 23.7664 33.2702C24.5878 33.3635 25.4838 33.4662 26.4544 33.5782C27.4251 33.6902 28.4518 33.7369 29.5344 33.7182C30.2624 33.7182 30.7851 33.6062 31.1024 33.3822C31.4384 33.1395 31.6064 32.7942 31.6064 32.3462C31.6064 31.8049 31.4384 31.3942 31.1024 31.1142C30.7851 30.8155 30.2624 30.6662 29.5344 30.6662H23.9064C22.8984 30.6662 22.1238 30.4795 21.5824 30.1062C21.0411 29.7329 20.7704 29.0609 20.7704 28.0902V23.4702C20.7704 22.4995 20.9198 21.7529 21.2184 21.2302C21.5358 20.7075 21.9651 20.3435 22.5064 20.1382C23.0664 19.9329 23.7011 19.8302 24.4104 19.8302H31.9984C33.2118 19.8302 34.0611 20.1009 34.5464 20.6422C35.0318 21.1835 35.2744 21.8929 35.2744 22.7702C35.2744 23.6475 35.0318 24.3755 34.5464 24.9542C34.0611 25.5142 33.2118 25.7942 31.9984 25.7942C31.0278 25.7942 30.0571 25.5795 29.0864 25.1502C28.1344 24.7209 27.3318 24.1329 26.6784 23.3862H26.1184V28.0062H30.0384Z" fill="white"/>
</svg>
