<svg width="56" height="57" viewBox="0 0 56 57" fill="none" xmlns="http://www.w3.org/2000/svg">
<rect y="0.158203" width="56" height="56" rx="28" fill="#FEC7E4"/>
<path d="M24.3902 28.7902C24.3902 28.7902 24.7635 28.6875 25.5102 28.4822C26.2755 28.2769 27.2835 28.1742 28.5342 28.1742C29.8782 28.1742 31.0822 28.3142 32.1462 28.5942C33.2289 28.8555 34.0875 29.3689 34.7222 30.1342C35.3569 30.8995 35.6742 32.0102 35.6742 33.4662C35.6742 35.5195 35.1049 37.1529 33.9662 38.3662C32.8275 39.5609 30.9982 40.1582 28.4782 40.1582C26.7982 40.1582 25.3422 39.8502 24.1102 39.2342C22.8969 38.6182 21.9542 37.6289 21.2822 36.2662C20.6289 34.8849 20.3022 33.0649 20.3022 30.8062C20.3022 28.5849 20.6102 26.6342 21.2262 24.9542C21.8422 23.2742 22.7849 21.9675 24.0542 21.0342C25.3235 20.0822 26.9382 19.6062 28.8982 19.6062C31.0635 19.6062 32.6409 19.9142 33.6302 20.5302C34.6382 21.1275 35.1422 21.9769 35.1422 23.0782C35.1422 23.9555 34.9089 24.6555 34.4422 25.1782C33.9942 25.7009 33.3969 25.9622 32.6502 25.9622C32.0155 25.9622 31.3435 25.8782 30.6342 25.7102C29.9249 25.5422 29.1875 25.4582 28.4222 25.4582C27.4889 25.4582 26.7235 25.6262 26.1262 25.9622C25.5289 26.2982 25.0902 26.7182 24.8102 27.2222C24.5302 27.7262 24.3902 28.2489 24.3902 28.7902ZM24.6982 32.2062C24.6982 32.7289 24.9502 33.1022 25.4542 33.3262C25.9769 33.5502 26.9475 33.6622 28.3662 33.6622C29.8035 33.6622 30.7649 33.5502 31.2502 33.3262C31.7542 33.1022 32.0062 32.7289 32.0062 32.2062C32.0062 31.7022 31.7542 31.3475 31.2502 31.1422C30.7649 30.9369 29.8035 30.8342 28.3662 30.8342C26.9475 30.8342 25.9769 30.9369 25.4542 31.1422C24.9502 31.3475 24.6982 31.7022 24.6982 32.2062Z" fill="white"/>
</svg>
