<svg width="80" height="88" viewBox="0 0 80 88" fill="none" xmlns="http://www.w3.org/2000/svg">
<path d="M64.4806 30.7799C64.9132 32.2954 64.9526 33.8863 64.5938 35.3515C64.2351 36.8167 63.4942 38.0903 62.465 39.0113C61.4358 39.9323 60.1645 40.4593 58.8118 40.5256C57.459 40.592 56.0857 40.1948 54.8654 39.3841C53.6451 38.5735 52.6326 37.3859 51.9561 35.9716C51.2795 34.5572 50.9692 32.9795 51.0644 31.4381C51.1597 29.8967 51.6561 28.4608 52.491 27.3119C53.3259 26.163 54.4618 25.3528 55.755 24.9836C57.4891 24.4887 59.3826 24.8212 61.019 25.9083C62.6554 26.9953 63.9006 28.7476 64.4806 30.7799ZM25.2499 41.9778C24.8173 40.4623 24.011 39.0903 22.9328 38.0353C21.8547 36.9803 20.5532 36.2896 19.1929 36.0507C17.8326 35.8117 16.4746 36.0352 15.2907 36.6929C14.1068 37.3506 13.15 38.413 12.5415 39.7456C11.933 41.0783 11.6999 42.6213 11.8719 44.1797C12.0439 45.7381 12.6132 47.2419 13.5077 48.5008C14.4022 49.7597 15.5819 50.7172 16.8975 51.2522C18.213 51.7873 19.6055 51.8759 20.8986 51.5067C22.6327 51.0117 24.0654 49.7297 24.8814 47.9427C25.6974 46.1557 25.83 44.0101 25.2499 41.9778ZM28.358 35.1715C29.6511 34.8024 30.787 33.9921 31.6219 32.8432C32.4568 31.6943 32.9533 30.2584 33.0485 28.717C33.1437 27.1756 32.8334 25.5979 32.1569 24.1836C31.4803 22.7692 30.4679 21.5816 29.2476 20.771C28.0273 19.9604 26.6539 19.5631 25.3012 19.6295C23.9485 19.6959 22.6771 20.2229 21.6479 21.1439C20.6187 22.0648 19.8779 23.3385 19.5191 24.8036C19.1603 26.2688 19.1997 27.8597 19.6323 29.3753C20.2124 31.4075 21.4576 33.1599 23.094 34.2469C24.7303 35.3339 26.6238 35.6665 28.358 35.1715ZM45.1711 30.3724C46.4643 30.0032 47.6002 29.193 48.4351 28.0441C49.27 26.8952 49.7665 25.4593 49.8617 23.9179C49.9569 22.3765 49.6466 20.7988 48.9701 19.3844C48.2935 17.9701 47.281 16.7825 46.0607 15.9719C44.8404 15.1612 43.4671 14.764 42.1144 14.8304C40.7616 14.8967 39.4903 15.4237 38.4611 16.3447C37.4319 17.2657 36.691 18.5393 36.3323 20.0045C35.9735 21.4697 36.0129 23.0606 36.4455 24.5761C37.0256 26.6084 38.2707 28.3607 39.9071 29.4477C41.5435 30.5347 43.437 30.8673 45.1711 30.3724ZM55.324 45.4864C54.2 45.1438 53.1277 44.5558 52.1683 43.756C51.209 42.9563 50.3815 41.9605 49.7333 40.8257C48.3976 38.4996 46.4721 36.6705 44.2463 35.6133C42.0205 34.5561 39.6145 34.3278 37.3899 34.9628C35.1653 35.5978 33.2423 37.0617 31.91 39.1346C30.5776 41.2075 29.9078 43.7773 30.0012 46.458C30.1021 49.085 29.2882 51.5631 27.738 53.3487C26.2415 55.029 25.3211 57.2811 25.1224 59.7489C24.9237 62.2166 25.4581 64.7592 26.6409 66.9744C27.8237 69.1896 29.5876 70.9511 31.6534 71.9801C33.7193 73.0092 35.9692 73.2471 38.0474 72.6563C39.2936 72.3051 40.4433 71.6618 41.4271 70.7652C44.5776 67.9557 48.6801 66.7846 52.839 67.5078C55.3747 68.0042 57.8979 67.3707 59.8798 65.7399C61.8616 64.1092 63.1481 61.608 63.4696 58.7606C63.791 55.9133 63.1225 52.9409 61.6041 50.4668C60.0856 47.9926 57.8353 46.2087 55.3248 45.4892L55.324 45.4864Z" fill="#FEC7E4"/>
</svg>
