<svg width="65" height="65" viewBox="0 0 65 65" fill="none" xmlns="http://www.w3.org/2000/svg">
<mask id="path-1-inside-1_4788_19025" fill="white">
<path d="M0.669922 32.1582C0.669922 14.4851 14.9968 0.158203 32.6699 0.158203C50.343 0.158203 64.6699 14.4851 64.6699 32.1582C64.6699 49.8313 50.343 64.1582 32.6699 64.1582C14.9968 64.1582 0.669922 49.8313 0.669922 32.1582Z"/>
</mask>
<path d="M0.669922 32.1582C0.669922 14.4851 14.9968 0.158203 32.6699 0.158203C50.343 0.158203 64.6699 14.4851 64.6699 32.1582C64.6699 49.8313 50.343 64.1582 32.6699 64.1582C14.9968 64.1582 0.669922 49.8313 0.669922 32.1582Z" fill="#FEC7E4"/>
<path d="M32.6699 64.1582V63.1582C15.5491 63.1582 1.66992 49.279 1.66992 32.1582H0.669922H-0.330078C-0.330078 50.3836 14.4445 65.1582 32.6699 65.1582V64.1582ZM64.6699 32.1582H63.6699C63.6699 49.279 49.7907 63.1582 32.6699 63.1582V64.1582V65.1582C50.8953 65.1582 65.6699 50.3836 65.6699 32.1582H64.6699ZM32.6699 0.158203V1.1582C49.7907 1.1582 63.6699 15.0374 63.6699 32.1582H64.6699H65.6699C65.6699 13.9328 50.8953 -0.841797 32.6699 -0.841797V0.158203ZM32.6699 0.158203V-0.841797C14.4445 -0.841797 -0.330078 13.9328 -0.330078 32.1582H0.669922H1.66992C1.66992 15.0374 15.5491 1.1582 32.6699 1.1582V0.158203Z" fill="#4A4035" mask="url(#path-1-inside-1_4788_19025)"/>
<path d="M25.6387 24.5723L24.7451 24.0742L22.416 22.7852C21.9375 22.5215 21.6348 22.1553 21.5078 21.6865C21.3906 21.2178 21.4297 20.7637 21.625 20.3242C21.8301 19.8848 22.1768 19.582 22.665 19.416H22.6797L22.6943 19.4014H22.709C22.748 19.3916 22.7676 19.3867 22.7676 19.3867L25.6387 24.5723ZM25.6387 24.5723L25.5215 23.5615C25.4922 23.2979 25.4775 23.0439 25.4775 22.7998V20.7197V20.5732L25.4043 20.4561C25.1504 20.0068 24.7793 19.6797 24.291 19.4746C23.8027 19.2695 23.2998 19.2402 22.7822 19.3867H22.7676L25.6387 24.5723ZM27.0596 16.3838H26.5322V16.9111V22.7998C26.5322 23.8545 26.791 24.8213 27.3086 25.7002C27.8359 26.5693 28.5342 27.2676 29.4033 27.7949C30.2822 28.3125 31.2539 28.5713 32.3184 28.5713C33.3828 28.5713 34.3496 28.3125 35.2188 27.7949C36.0977 27.2676 36.7959 26.5693 37.3135 25.7002C37.8408 24.8213 38.1045 23.8545 38.1045 22.7998V16.9111V16.3838H37.5625H27.0596ZM26.2246 25.8906L26.1514 25.7441L26.0049 25.6562L22.0352 23.4736C21.5469 23.2002 21.1904 22.834 20.9658 22.375C20.7412 21.916 20.6436 21.4375 20.6729 20.9395C20.7119 20.4316 20.8779 19.9727 21.1709 19.5625C21.4736 19.1523 21.8936 18.8594 22.4307 18.6836C22.4502 18.6738 22.4941 18.6592 22.5625 18.6396H22.5771C23.3193 18.4346 24.0371 18.498 24.7305 18.8301L25.4775 19.1816V18.3467V15.5488C25.4775 15.4023 25.5508 15.3291 25.6973 15.3291H38.9248C39.0811 15.3291 39.1592 15.4023 39.1592 15.5488V18.3467V19.1816L39.9062 18.8154C40.5898 18.4932 41.3027 18.4346 42.0449 18.6396H42.0596C42.1279 18.6592 42.1719 18.6738 42.1914 18.6836C42.7285 18.8594 43.1436 19.1523 43.4365 19.5625C43.7393 19.9727 43.9102 20.4316 43.9492 20.9395C43.9883 21.4375 43.8955 21.916 43.6709 22.375C43.4463 22.834 43.085 23.2002 42.5869 23.4736L38.6318 25.6562L38.4854 25.7295L38.4268 25.876C37.9775 26.7549 37.3623 27.5068 36.5811 28.1318C35.8096 28.7568 34.9307 29.1865 33.9443 29.4209L33.5488 29.5234V29.9482V31.1787C33.5488 32.1553 33.9297 32.9658 34.6914 33.6104L36.7129 35.2949L36.8594 35.4268H37.0498H39.8477C40.1406 35.4268 40.3896 35.5098 40.5947 35.6758C40.8096 35.8418 40.9463 36.0469 41.0049 36.291L42.7041 43.7764C42.7041 43.7764 42.7041 43.7812 42.7041 43.791C42.6846 43.8105 42.665 43.8203 42.6455 43.8203H21.6543C21.625 43.8203 21.6055 43.8105 21.5957 43.791C21.5957 43.791 21.5908 43.791 21.5811 43.791C21.5811 43.7812 21.5811 43.7764 21.5811 43.7764L23.2949 36.291C23.3438 36.0469 23.4707 35.8418 23.6758 35.6758C23.8906 35.5098 24.1445 35.4268 24.4375 35.4268H27.5723H27.7627L27.9092 35.2949L29.9307 33.6104C30.6924 32.9854 31.0732 32.1748 31.0732 31.1787V29.9336V29.5234L30.6777 29.4209C29.7012 29.1865 28.8223 28.7568 28.041 28.1318C27.2695 27.5068 26.6641 26.7598 26.2246 25.8906ZM39.2324 20.4268L39.1592 20.5586V20.7051V22.7998C39.1592 23.0537 39.1445 23.3027 39.1152 23.5469L38.998 24.5723L39.8916 24.0742L42.2061 22.7852C42.6846 22.5215 42.9824 22.1553 43.0996 21.6865C43.2266 21.2178 43.1875 20.7637 42.9824 20.3242C42.7871 19.8848 42.4453 19.582 41.957 19.416H41.9424L41.9277 19.4014H41.9131H41.8838L41.8545 19.3867H41.8398L41.708 19.8994L41.8398 19.3867C41.332 19.2402 40.834 19.2695 40.3457 19.4746C39.8672 19.6699 39.4961 19.9873 39.2324 20.4268ZM35.1895 37.4629H29.0957C28.7734 37.4629 28.4951 37.5801 28.2607 37.8145C28.0361 38.0488 27.9238 38.332 27.9238 38.6641V40.5684C27.9238 40.8906 28.0312 41.1689 28.2461 41.4033C28.4707 41.6475 28.7539 41.7695 29.0957 41.7695H35.1895C35.5215 41.7695 35.7998 41.6523 36.0244 41.418C36.249 41.1836 36.3613 40.9004 36.3613 40.5684V38.6641C36.3613 38.3418 36.249 38.0635 36.0244 37.8291C35.8096 37.585 35.5312 37.4629 35.1895 37.4629ZM25.7412 26.125L21.7568 23.9131C20.585 23.249 20.0527 22.2432 20.1602 20.8955C20.2676 19.5186 20.9707 18.6104 22.2695 18.1709C22.3086 18.1611 22.3672 18.1465 22.4453 18.127C22.5039 18.1074 22.5674 18.0928 22.6357 18.083L22.9434 18.0098V18.0244C23.6367 17.9268 24.3057 18.0342 24.9502 18.3467V15.5488C24.9502 15.0508 25.1992 14.8018 25.6973 14.8018H38.9248C39.4326 14.8018 39.6865 15.0508 39.6865 15.5488V18.3467C40.4873 17.9658 41.3174 17.8926 42.1768 18.127H42.1914C42.25 18.1465 42.2988 18.1611 42.3379 18.1709L42.8799 18.3174L42.8506 18.376C43.8369 18.8643 44.374 19.7041 44.4619 20.8955C44.5693 22.2627 44.0273 23.2734 42.8359 23.9277L42.7188 24.001L38.8955 26.1104C37.8701 28.1318 36.2637 29.4111 34.0762 29.9482V31.1787C34.0762 31.999 34.3936 32.6729 35.0283 33.2002L37.0498 34.8994H39.8477C40.7656 34.8994 41.3223 35.3242 41.5176 36.1738L43.1875 43.5127V43.5273L43.2168 43.6592C43.2168 43.6494 43.2119 43.6396 43.2021 43.6299L43.2168 43.6738V43.6885C43.2266 43.708 43.2314 43.7227 43.2314 43.7324C43.2314 43.7227 43.2266 43.708 43.2168 43.6885L43.2314 43.7178V43.7617C43.2314 43.7715 43.2314 43.7812 43.2314 43.791V43.9082L43.1729 44.0107C43.1533 44.0596 43.1289 44.0986 43.0996 44.1279C42.9824 44.2744 42.8311 44.3477 42.6455 44.3477H21.6543C21.459 44.3477 21.3027 44.2744 21.1855 44.1279C21.1367 44.0693 21.1025 44.001 21.083 43.9229L21.0537 43.8496V43.7617C21.0635 43.7324 21.0684 43.7031 21.0684 43.6738L21.083 43.6445L22.7822 36.1885V36.1738L22.7969 36.0859L22.8701 35.7637H22.8994C23.1533 35.1875 23.666 34.8994 24.4375 34.8994H27.5723L29.6084 33.2002C30.2334 32.6729 30.5459 31.999 30.5459 31.1787V29.9336C28.3682 29.4062 26.7666 28.1367 25.7412 26.125ZM23.7051 36.833L22.2402 43.293H42.0449L40.4775 36.4082C40.4092 36.1055 40.1992 35.9541 39.8477 35.9541H36.6689L36.376 35.7051L34.3398 34.0059C33.4609 33.2637 33.0215 32.3213 33.0215 31.1787V29.1133L33.5049 28.9961C33.124 29.0645 32.7285 29.0986 32.3184 29.0986C31.9082 29.0986 31.5127 29.0645 31.1318 28.9961L31.6006 29.1133V31.1787C31.6006 32.3408 31.1562 33.2881 30.2676 34.0205L28.2461 35.7051L27.9531 35.9541H24.4375C24.0762 35.9541 23.8662 36.1006 23.8076 36.3936L23.7197 36.833H23.7051ZM27.0596 16.9111V22.7998C27.0596 24.2451 27.5723 25.4805 28.5977 26.5059C29.623 27.5312 30.8633 28.0439 32.3184 28.0439C33.7637 28.0439 35.0039 27.5312 36.0391 26.5059C37.0547 25.4805 37.5625 24.2451 37.5625 22.7998V16.9111H27.0596ZM35.1895 36.9355C36.3223 36.9355 36.8887 37.5117 36.8887 38.6641V40.5684C36.8887 41.0469 36.7275 41.4521 36.4053 41.7842C36.0732 42.1357 35.668 42.3115 35.1895 42.3115H29.0957C27.9629 42.3115 27.3965 41.7305 27.3965 40.5684V38.6641C27.3965 37.5117 27.9629 36.9355 29.0957 36.9355H35.1895ZM35.1895 37.9902H29.0957C28.666 37.9902 28.4512 38.2148 28.4512 38.6641V40.5684C28.4512 41.0176 28.666 41.2422 29.0957 41.2422H35.1895C35.3652 41.2422 35.5166 41.1787 35.6436 41.0518C35.7705 40.9248 35.834 40.7637 35.834 40.5684V38.6641C35.834 38.2148 35.6191 37.9902 35.1895 37.9902ZM39.6865 20.7051V22.7998C39.6865 23.0732 39.6719 23.3418 39.6426 23.6055L41.6787 22.4775L41.8691 22.375L41.9277 22.3457L41.8691 22.375C41.8984 22.3555 41.9375 22.3359 41.9863 22.3164C41.9766 22.3164 41.9668 22.3213 41.957 22.3311L41.9863 22.3164C42.4746 22.0332 42.6943 21.6084 42.6455 21.042C42.5967 20.4756 42.3184 20.1045 41.8105 19.9287L41.708 19.8994L41.8105 19.9287L41.6934 19.8848C40.8145 19.6504 40.1455 19.9238 39.6865 20.7051ZM24.291 23.2246L22.5332 20.0605C22.2012 20.2656 22.0156 20.5928 21.9766 21.042C21.9277 21.6182 22.1572 22.0479 22.665 22.3311L22.6943 22.3457L24.291 23.2246ZM24.9502 22.2432V20.7197C24.6182 20.1436 24.1689 19.8408 23.6025 19.8115L24.9502 22.2432ZM38.1045 25.334L38.3828 25.1875H38.3975L38.5586 23.7812C38.4805 24.3281 38.3291 24.8457 38.1045 25.334ZM25.6387 19.8408C25.7168 19.9482 25.79 20.0654 25.8584 20.1924L26.0049 20.4414V20.0166L25.6387 19.8408ZM38.7783 20.1631C38.8467 20.0459 38.915 19.9385 38.9834 19.8408L38.6318 20.002V20.4121L38.7783 20.1631ZM35.1309 28.4541C36.0977 27.9951 36.8887 27.3115 37.5039 26.4033C37.2891 26.6963 37.0449 26.9795 36.7715 27.2529C36.2734 27.751 35.7266 28.1514 35.1309 28.4541ZM29.4912 28.4541C28.9053 28.1514 28.3584 27.751 27.8506 27.2529C27.5869 26.9795 27.3477 26.7012 27.1328 26.418C27.748 27.3164 28.5342 27.9951 29.4912 28.4541ZM26.2539 24.6016C26.1758 24.3379 26.1172 24.0693 26.0781 23.7959L26.1514 24.4111L26.2539 24.6016ZM43.2168 43.6885C43.2168 43.6787 43.2168 43.6689 43.2168 43.6592V43.6738V43.6885Z" fill="#4A4035"/>
</svg>
