<svg width="189" height="84" viewBox="0 0 189 84" fill="none" xmlns="http://www.w3.org/2000/svg">
<g filter="url(#filter0_dd_4766_15671)">
<rect x="12.5" y="2.55811" width="164" height="59" rx="24" fill="white"/>
<rect x="13" y="3.05811" width="163" height="58" rx="23.5" stroke="#BFD8B8"/>
<path d="M35.5003 36.1149L39.1341 38.3495C39.2283 38.4067 39.3375 38.4347 39.4477 38.4299C39.5579 38.4252 39.6642 38.3878 39.7531 38.3227C39.8421 38.2575 39.9098 38.1674 39.9476 38.0638C39.9854 37.9602 39.9916 37.8477 39.9655 37.7405L38.9773 33.5709L42.2113 30.7818C42.2938 30.7094 42.3532 30.6145 42.3823 30.5087C42.4114 30.4029 42.4089 30.2908 42.3751 30.1865C42.3413 30.0821 42.2776 29.9899 42.192 29.9213C42.1063 29.8526 42.0025 29.8106 41.8932 29.8003L37.6492 29.455L36.0143 25.4972C35.9726 25.3951 35.9015 25.3077 35.8099 25.2462C35.7184 25.1847 35.6106 25.1519 35.5003 25.1519C35.39 25.1519 35.2822 25.1847 35.1907 25.2462C35.0992 25.3077 35.028 25.3951 34.9863 25.4972L33.3514 29.455L29.1074 29.8003C28.9974 29.81 28.8927 29.8518 28.8063 29.9207C28.72 29.9895 28.6559 30.0822 28.6219 30.1873C28.588 30.2924 28.5858 30.4051 28.6155 30.5114C28.6453 30.6178 28.7057 30.713 28.7893 30.7851L32.0233 33.5742L31.0352 37.7405C31.009 37.8477 31.0153 37.9602 31.0531 38.0638C31.0909 38.1674 31.1585 38.2575 31.2475 38.3227C31.3365 38.3878 31.4428 38.4252 31.553 38.4299C31.6632 38.4347 31.7723 38.4067 31.8666 38.3495L35.5003 36.1149Z" fill="#4D2B12" stroke="#4D2B12" stroke-width="1.34375" stroke-linecap="round" stroke-linejoin="round"/>
<path d="M56.4867 41.0581C55.8201 41.0581 55.3134 40.8714 54.9667 40.4981C54.6201 40.1114 54.4467 39.6314 54.4467 39.0581V36.9381H54.1467C54.0801 37.2314 53.9334 37.5314 53.7067 37.8381C53.4801 38.1448 53.1534 38.3981 52.7267 38.5981C52.3001 38.7981 51.7534 38.8981 51.0867 38.8981C50.5534 38.8981 50.0401 38.7981 49.5467 38.5981C49.0667 38.3848 48.6734 38.0714 48.3667 37.6581C48.0734 37.2314 47.9267 36.7048 47.9267 36.0781C47.9267 35.5848 48.0267 35.1114 48.2267 34.6581C48.4401 34.1914 48.7734 33.6181 49.2267 32.9381L51.7867 29.0981C52.4001 28.1914 53.0067 27.5114 53.6067 27.0581C54.2201 26.6048 54.9001 26.3781 55.6467 26.3781C56.1667 26.3781 56.6401 26.4714 57.0667 26.6581C57.5067 26.8314 57.8601 27.1381 58.1267 27.5781C58.3934 28.0181 58.5267 28.6181 58.5267 29.3781V34.5181C58.5267 34.5181 58.6001 34.5114 58.7467 34.4981C58.8934 34.4714 59.0534 34.4581 59.2267 34.4581C59.6801 34.4581 60.0801 34.5914 60.4267 34.8581C60.7734 35.1114 60.9467 35.5714 60.9467 36.2381C60.9467 36.8914 60.7734 37.3514 60.4267 37.6181C60.0801 37.8848 59.6801 38.0181 59.2267 38.0181C59.0534 38.0181 58.8934 38.0048 58.7467 37.9781C58.6001 37.9514 58.5267 37.9381 58.5267 37.9381V39.0581C58.5267 39.6314 58.3534 40.1114 58.0067 40.4981C57.6734 40.8714 57.1667 41.0581 56.4867 41.0581ZM51.9067 34.2181C51.8134 34.3514 51.8001 34.4648 51.8667 34.5581C51.9334 34.6514 52.0334 34.6981 52.1667 34.6981H54.4467V30.6981H54.2267L51.9067 34.2181ZM64.2539 41.4381C63.4672 41.4381 62.8539 41.2314 62.4139 40.8181C61.9739 40.3914 61.7539 39.8314 61.7539 39.1381C61.7539 38.4314 61.9806 37.8581 62.4339 37.4181C62.8872 36.9781 63.4939 36.7581 64.2539 36.7581C65.0006 36.7581 65.5939 36.9781 66.0339 37.4181C66.4872 37.8448 66.7139 38.4114 66.7139 39.1181C66.7139 39.8114 66.5006 40.3714 66.0739 40.7981C65.6472 41.2248 65.0406 41.4381 64.2539 41.4381ZM75.5914 34.1981C75.3381 34.3048 74.9714 34.4248 74.4914 34.5581C74.0114 34.6914 73.3247 34.7581 72.4314 34.7581C71.8181 34.7581 71.2247 34.7114 70.6514 34.6181C70.0781 34.5114 69.5581 34.3248 69.0914 34.0581C68.6381 33.7781 68.2714 33.3848 67.9914 32.8781C67.7247 32.3714 67.5914 31.7114 67.5914 30.8981C67.5914 29.8181 67.8381 28.9448 68.3314 28.2781C68.8247 27.6114 69.4714 27.1314 70.2714 26.8381C71.0847 26.5314 71.9447 26.3781 72.8514 26.3781C73.9581 26.3781 74.8781 26.5581 75.6114 26.9181C76.3581 27.2648 76.9447 27.7648 77.3714 28.4181C77.8114 29.0581 78.1247 29.8181 78.3114 30.6981C78.4981 31.5648 78.5914 32.5181 78.5914 33.5581C78.5914 35.9714 78.0514 37.8248 76.9714 39.1181C75.8914 40.4114 74.4181 41.0581 72.5514 41.0581C70.9114 41.0581 69.7247 40.8448 68.9914 40.4181C68.2714 39.9781 67.9114 39.2981 67.9114 38.3781C67.9114 37.7914 68.0981 37.2781 68.4714 36.8381C68.8447 36.3981 69.3314 36.1781 69.9314 36.1781C70.4781 36.1781 70.9714 36.2248 71.4114 36.3181C71.8514 36.3981 72.2981 36.4381 72.7514 36.4381C73.7781 36.4381 74.5047 36.2181 74.9314 35.7781C75.3714 35.3381 75.5914 34.8114 75.5914 34.1981ZM70.1914 31.6581C70.1914 31.8981 70.2581 32.0848 70.3914 32.2181C70.5247 32.3514 70.7714 32.4448 71.1314 32.4981C71.4914 32.5514 72.0047 32.5781 72.6714 32.5781C73.6581 32.5781 74.3381 32.5181 74.7114 32.3981C75.0981 32.2648 75.2914 32.0181 75.2914 31.6581C75.2914 31.3114 75.0981 31.0714 74.7114 30.9381C74.3381 30.7914 73.6581 30.7181 72.6714 30.7181C72.0047 30.7181 71.4914 30.7514 71.1314 30.8181C70.7714 30.8714 70.5247 30.9648 70.3914 31.0981C70.2581 31.2314 70.1914 31.4181 70.1914 31.6581ZM80.7083 43.8381C80.0149 43.6514 79.5483 43.2381 79.3083 42.5981C79.0683 41.9714 79.0549 41.2314 79.2683 40.3781C79.4549 39.6448 79.6683 39.0381 79.9083 38.5581C80.1616 38.0648 80.4149 37.6181 80.6683 37.2181C80.9216 36.8181 81.1616 36.3981 81.3883 35.9581C81.6283 35.5181 81.8283 34.9781 81.9883 34.3381C82.1616 33.6581 82.2816 32.9114 82.3483 32.0981C82.4149 31.2714 82.4883 30.4114 82.5683 29.5181C82.6616 28.6248 82.8216 27.7381 83.0483 26.8581C83.2349 26.1514 83.5483 25.5781 83.9883 25.1381C84.4416 24.6981 85.0216 24.5648 85.7283 24.7381C86.1949 24.8448 86.5349 25.0648 86.7483 25.3981C86.9616 25.7181 87.0749 26.1114 87.0883 26.5781C87.1016 27.0314 87.0416 27.5181 86.9083 28.0381C86.7083 28.9048 86.4149 29.7381 86.0283 30.5381C85.6549 31.3248 85.2883 32.0781 84.9283 32.7981C84.5683 33.5181 84.3016 34.2181 84.1283 34.8981C83.9549 35.5381 83.8616 36.1181 83.8483 36.6381C83.8349 37.1581 83.8483 37.6648 83.8883 38.1581C83.9283 38.6381 83.9349 39.1581 83.9083 39.7181C83.8816 40.2781 83.7749 40.9181 83.5883 41.6381C83.3883 42.4248 83.0416 43.0314 82.5483 43.4581C82.0683 43.8981 81.4549 44.0248 80.7083 43.8381ZM94.9853 32.3781C95.7853 32.3781 96.492 32.4981 97.1053 32.7381C97.732 32.9781 98.2186 33.3914 98.5653 33.9781C98.9253 34.5514 99.1053 35.3648 99.1053 36.4181C99.1053 37.3381 98.9386 38.1048 98.6053 38.7181C98.2853 39.3181 97.8453 39.7914 97.2853 40.1381C96.7386 40.4714 96.1186 40.7114 95.4253 40.8581C94.732 40.9914 94.012 41.0581 93.2653 41.0581C91.572 41.0581 90.2586 40.8514 89.3253 40.4381C88.392 40.0114 87.9253 39.2848 87.9253 38.2581C87.9253 37.5381 88.1653 36.9848 88.6453 36.5981C89.1253 36.1981 89.7453 36.0448 90.5053 36.1381C91.092 36.2048 91.732 36.2781 92.4253 36.3581C93.1186 36.4381 93.852 36.4714 94.6253 36.4581C95.1453 36.4581 95.5186 36.3781 95.7453 36.2181C95.9853 36.0448 96.1053 35.7981 96.1053 35.4781C96.1053 35.0914 95.9853 34.7981 95.7453 34.5981C95.5186 34.3848 95.1453 34.2781 94.6253 34.2781H90.6053C89.8853 34.2781 89.332 34.1448 88.9453 33.8781C88.5586 33.6114 88.3653 33.1314 88.3653 32.4381V29.1381C88.3653 28.4448 88.472 27.9114 88.6853 27.5381C88.912 27.1648 89.2186 26.9048 89.6053 26.7581C90.0053 26.6114 90.4586 26.5381 90.9653 26.5381H96.3853C97.252 26.5381 97.8586 26.7314 98.2053 27.1181C98.552 27.5048 98.7253 28.0114 98.7253 28.6381C98.7253 29.2648 98.552 29.7848 98.2053 30.1981C97.8586 30.5981 97.252 30.7981 96.3853 30.7981C95.692 30.7981 94.9986 30.6448 94.3053 30.3381C93.6253 30.0314 93.052 29.6114 92.5853 29.0781H92.1853V32.3781H94.9853Z" fill="#4D2B12"/>
<path d="M120.368 37.0581V27.2581H124.54C125.1 27.2581 125.613 27.3981 126.08 27.6781C126.556 27.9488 126.934 28.3221 127.214 28.7981C127.494 29.2648 127.634 29.7921 127.634 30.3801C127.634 30.9121 127.494 31.4068 127.214 31.8641C126.934 32.3214 126.561 32.6901 126.094 32.9701C125.627 33.2408 125.109 33.3761 124.54 33.3761H121.88V37.0581H120.368ZM126.192 37.0581L123.7 32.6341L125.254 32.2841L128.026 37.0721L126.192 37.0581ZM121.88 31.9201H124.68C124.951 31.9201 125.193 31.8548 125.408 31.7241C125.623 31.5841 125.791 31.3974 125.912 31.1641C126.033 30.9214 126.094 30.6554 126.094 30.3661C126.094 30.0394 126.015 29.7548 125.856 29.5121C125.707 29.2601 125.492 29.0641 125.212 28.9241C124.941 28.7841 124.633 28.7141 124.288 28.7141H121.88V31.9201ZM132.293 37.1981C131.686 37.1981 131.131 37.0301 130.627 36.6941C130.132 36.3581 129.736 35.9008 129.437 35.3221C129.138 34.7434 128.989 34.0901 128.989 33.3621C128.989 32.6248 129.138 31.9714 129.437 31.4021C129.745 30.8234 130.156 30.3708 130.669 30.0441C131.192 29.7174 131.775 29.5541 132.419 29.5541C132.802 29.5541 133.152 29.6101 133.469 29.7221C133.786 29.8341 134.062 29.9928 134.295 30.1981C134.538 30.3941 134.734 30.6228 134.883 30.8841C135.042 31.1454 135.14 31.4254 135.177 31.7241L134.855 31.6121V29.7081H136.311V37.0581H134.855V35.3081L135.191 35.2101C135.135 35.4621 135.018 35.7094 134.841 35.9521C134.673 36.1854 134.454 36.3954 134.183 36.5821C133.922 36.7688 133.628 36.9181 133.301 37.0301C132.984 37.1421 132.648 37.1981 132.293 37.1981ZM132.671 35.8681C133.11 35.8681 133.497 35.7608 133.833 35.5461C134.169 35.3314 134.43 35.0374 134.617 34.6641C134.813 34.2814 134.911 33.8474 134.911 33.3621C134.911 32.8861 134.813 32.4614 134.617 32.0881C134.43 31.7148 134.169 31.4208 133.833 31.2061C133.497 30.9914 133.11 30.8841 132.671 30.8841C132.242 30.8841 131.859 30.9914 131.523 31.2061C131.196 31.4208 130.935 31.7148 130.739 32.0881C130.552 32.4614 130.459 32.8861 130.459 33.3621C130.459 33.8474 130.552 34.2814 130.739 34.6641C130.935 35.0374 131.196 35.3314 131.523 35.5461C131.859 35.7608 132.242 35.8681 132.671 35.8681ZM139.234 37.0581V27.8321H140.676V37.0581H139.234ZM137.708 31.1081V29.7081H142.384V31.1081H137.708ZM143.935 37.0581V29.7081H145.377V37.0581H143.935ZM144.635 28.0841C144.327 28.0841 144.089 28.0048 143.921 27.8461C143.753 27.6874 143.669 27.4634 143.669 27.1741C143.669 26.9034 143.753 26.6841 143.921 26.5161C144.099 26.3481 144.337 26.2641 144.635 26.2641C144.943 26.2641 145.181 26.3434 145.349 26.5021C145.517 26.6608 145.601 26.8848 145.601 27.1741C145.601 27.4448 145.513 27.6641 145.335 27.8321C145.167 28.0001 144.934 28.0841 144.635 28.0841ZM147.594 37.0581V29.7081H149.036V31.2201L148.784 31.3881C148.877 31.0614 149.059 30.7628 149.33 30.4921C149.601 30.2121 149.923 29.9881 150.296 29.8201C150.669 29.6428 151.052 29.5541 151.444 29.5541C152.004 29.5541 152.471 29.6661 152.844 29.8901C153.217 30.1048 153.497 30.4361 153.684 30.8841C153.871 31.3321 153.964 31.8968 153.964 32.5781V37.0581H152.522V32.6761C152.522 32.2561 152.466 31.9108 152.354 31.6401C152.242 31.3601 152.069 31.1594 151.836 31.0381C151.603 30.9074 151.313 30.8514 150.968 30.8701C150.688 30.8701 150.431 30.9168 150.198 31.0101C149.965 31.0941 149.759 31.2154 149.582 31.3741C149.414 31.5328 149.279 31.7194 149.176 31.9341C149.083 32.1394 149.036 32.3634 149.036 32.6061V37.0581H148.322C148.201 37.0581 148.079 37.0581 147.958 37.0581C147.837 37.0581 147.715 37.0581 147.594 37.0581ZM159.21 40.2781C158.687 40.2781 158.165 40.1941 157.642 40.0261C157.129 39.8674 156.713 39.6574 156.396 39.3961L156.928 38.2761C157.115 38.4161 157.334 38.5374 157.586 38.6401C157.838 38.7521 158.104 38.8361 158.384 38.8921C158.664 38.9574 158.939 38.9901 159.21 38.9901C159.723 38.9901 160.153 38.9061 160.498 38.7381C160.843 38.5701 161.105 38.3228 161.282 37.9961C161.459 37.6694 161.548 37.2634 161.548 36.7781V35.3641L161.702 35.4621C161.655 35.7514 161.501 36.0314 161.24 36.3021C160.988 36.5634 160.671 36.7781 160.288 36.9461C159.905 37.1141 159.513 37.1981 159.112 37.1981C158.412 37.1981 157.787 37.0348 157.236 36.7081C156.695 36.3721 156.265 35.9194 155.948 35.3501C155.631 34.7714 155.472 34.1134 155.472 33.3761C155.472 32.6388 155.626 31.9854 155.934 31.4161C156.251 30.8374 156.681 30.3848 157.222 30.0581C157.773 29.7221 158.389 29.5541 159.07 29.5541C159.35 29.5541 159.621 29.5914 159.882 29.6661C160.143 29.7314 160.386 29.8294 160.61 29.9601C160.834 30.0814 161.035 30.2168 161.212 30.3661C161.389 30.5154 161.534 30.6741 161.646 30.8421C161.758 31.0101 161.828 31.1688 161.856 31.3181L161.548 31.4301V29.7081H162.99V36.6101C162.99 37.1981 162.901 37.7161 162.724 38.1641C162.556 38.6214 162.309 39.0041 161.982 39.3121C161.655 39.6294 161.259 39.8674 160.792 40.0261C160.325 40.1941 159.798 40.2781 159.21 40.2781ZM159.266 35.8681C159.723 35.8681 160.129 35.7608 160.484 35.5461C160.839 35.3314 161.114 35.0374 161.31 34.6641C161.506 34.2908 161.604 33.8614 161.604 33.3761C161.604 32.8908 161.501 32.4614 161.296 32.0881C161.1 31.7054 160.825 31.4068 160.47 31.1921C160.125 30.9774 159.723 30.8701 159.266 30.8701C158.818 30.8701 158.417 30.9821 158.062 31.2061C157.717 31.4208 157.441 31.7194 157.236 32.1021C157.04 32.4754 156.942 32.9001 156.942 33.3761C156.942 33.8521 157.04 34.2814 157.236 34.6641C157.441 35.0374 157.717 35.3314 158.062 35.5461C158.417 35.7608 158.818 35.8681 159.266 35.8681Z" fill="#4D2B12" fill-opacity="0.7"/>
</g>
<defs>
<filter id="filter0_dd_4766_15671" x="0.5" y="0.558105" width="188" height="83.0005" filterUnits="userSpaceOnUse" color-interpolation-filters="sRGB">
<feFlood flood-opacity="0" result="BackgroundImageFix"/>
<feColorMatrix in="SourceAlpha" type="matrix" values="0 0 0 0 0 0 0 0 0 0 0 0 0 0 0 0 0 0 127 0" result="hardAlpha"/>
<feMorphology radius="4" operator="erode" in="SourceAlpha" result="effect1_dropShadow_4766_15671"/>
<feOffset dy="4"/>
<feGaussianBlur stdDeviation="3"/>
<feComposite in2="hardAlpha" operator="out"/>
<feColorMatrix type="matrix" values="0 0 0 0 0 0 0 0 0 0 0 0 0 0 0 0 0 0 0.1 0"/>
<feBlend mode="normal" in2="BackgroundImageFix" result="effect1_dropShadow_4766_15671"/>
<feColorMatrix in="SourceAlpha" type="matrix" values="0 0 0 0 0 0 0 0 0 0 0 0 0 0 0 0 0 0 127 0" result="hardAlpha"/>
<feMorphology radius="3" operator="erode" in="SourceAlpha" result="effect2_dropShadow_4766_15671"/>
<feOffset dy="10"/>
<feGaussianBlur stdDeviation="7.5"/>
<feComposite in2="hardAlpha" operator="out"/>
<feColorMatrix type="matrix" values="0 0 0 0 0 0 0 0 0 0 0 0 0 0 0 0 0 0 0.1 0"/>
<feBlend mode="normal" in2="effect1_dropShadow_4766_15671" result="effect2_dropShadow_4766_15671"/>
<feBlend mode="normal" in="SourceGraphic" in2="effect2_dropShadow_4766_15671" result="shape"/>
</filter>
</defs>
</svg>
