<svg width="271" height="84" viewBox="0 0 271 84" fill="none" xmlns="http://www.w3.org/2000/svg">
<g filter="url(#filter0_dd_4766_15486)">
<rect x="12.5" y="2.55811" width="246" height="59" rx="24" fill="white"/>
<rect x="13" y="3.05811" width="245" height="58" rx="23.5" stroke="#FEC7E4"/>
<path d="M54.5 31.0581C55.6645 31.0572 56.8131 31.3279 57.8547 31.8487C58.8963 32.3695 59.802 33.126 60.5 34.0581" stroke="#4D2B12" stroke-width="2" stroke-linecap="round" stroke-linejoin="round"/>
<path d="M32.5 34.0581C33.198 33.126 34.1037 32.3695 35.1453 31.8487C36.1869 31.3279 37.3355 31.0572 38.5 31.0581" stroke="#4D2B12" stroke-width="2" stroke-linecap="round" stroke-linejoin="round"/>
<path d="M46.5 39.0581C49.2614 39.0581 51.5 36.8195 51.5 34.0581C51.5 31.2967 49.2614 29.0581 46.5 29.0581C43.7386 29.0581 41.5 31.2967 41.5 34.0581C41.5 36.8195 43.7386 39.0581 46.5 39.0581Z" stroke="#4D2B12" stroke-width="2" stroke-linecap="round" stroke-linejoin="round"/>
<path d="M39.5 43.0581C40.2179 41.8399 41.2412 40.8302 42.4689 40.1286C43.6965 39.4271 45.086 39.0581 46.5 39.0581C47.914 39.0581 49.3035 39.4271 50.5311 40.1286C51.7588 40.8302 52.7821 41.8399 53.5 43.0581" stroke="#4D2B12" stroke-width="2" stroke-linecap="round" stroke-linejoin="round"/>
<path d="M50.625 26.0581C50.812 25.3338 51.1984 24.6765 51.7402 24.1607C52.2821 23.645 52.9577 23.2915 53.6903 23.1405C54.423 22.9895 55.1833 23.0469 55.8849 23.3063C56.5866 23.5656 57.2014 24.0166 57.6596 24.6078C58.1179 25.1991 58.4011 25.907 58.4772 26.6512C58.5533 27.3953 58.4192 28.1459 58.0902 28.8177C57.7611 29.4895 57.2502 30.0555 56.6156 30.4516C55.981 30.8476 55.248 31.0577 54.5 31.0581" stroke="#4D2B12" stroke-width="2" stroke-linecap="round" stroke-linejoin="round"/>
<path d="M38.4999 31.0581C37.7519 31.0577 37.0189 30.8476 36.3843 30.4516C35.7497 30.0555 35.2388 29.4895 34.9098 28.8177C34.5807 28.1459 34.4466 27.3953 34.5227 26.6512C34.5988 25.907 34.8821 25.1991 35.3403 24.6078C35.7985 24.0166 36.4134 23.5656 37.115 23.3063C37.8167 23.0469 38.577 22.9895 39.3096 23.1405C40.0423 23.2915 40.7179 23.645 41.2597 24.1607C41.8016 24.6765 42.1879 25.3338 42.3749 26.0581" stroke="#4D2B12" stroke-width="2" stroke-linecap="round" stroke-linejoin="round"/>
<path d="M74.0713 32.3781C74.8713 32.3781 75.5779 32.4981 76.1913 32.7381C76.8179 32.9781 77.3046 33.3914 77.6513 33.9781C78.0113 34.5514 78.1913 35.3648 78.1913 36.4181C78.1913 37.3381 78.0246 38.1048 77.6913 38.7181C77.3713 39.3181 76.9313 39.7914 76.3713 40.1381C75.8246 40.4714 75.2046 40.7114 74.5113 40.8581C73.8179 40.9914 73.0979 41.0581 72.3513 41.0581C70.6579 41.0581 69.3446 40.8514 68.4113 40.4381C67.4779 40.0114 67.0113 39.2848 67.0113 38.2581C67.0113 37.5381 67.2513 36.9848 67.7313 36.5981C68.2113 36.1981 68.8313 36.0448 69.5913 36.1381C70.1779 36.2048 70.8179 36.2781 71.5113 36.3581C72.2046 36.4381 72.9379 36.4714 73.7113 36.4581C74.2313 36.4581 74.6046 36.3781 74.8313 36.2181C75.0713 36.0448 75.1913 35.7981 75.1913 35.4781C75.1913 35.0914 75.0713 34.7981 74.8313 34.5981C74.6046 34.3848 74.2313 34.2781 73.7113 34.2781H69.6913C68.9713 34.2781 68.4179 34.1448 68.0313 33.8781C67.6446 33.6114 67.4513 33.1314 67.4513 32.4381V29.1381C67.4513 28.4448 67.5579 27.9114 67.7713 27.5381C67.9979 27.1648 68.3046 26.9048 68.6913 26.7581C69.0913 26.6114 69.5446 26.5381 70.0513 26.5381H75.4713C76.3379 26.5381 76.9446 26.7314 77.2913 27.1181C77.6379 27.5048 77.8113 28.0114 77.8113 28.6381C77.8113 29.2648 77.6379 29.7848 77.2913 30.1981C76.9446 30.5981 76.3379 30.7981 75.4713 30.7981C74.7779 30.7981 74.0846 30.6448 73.3913 30.3381C72.7113 30.0314 72.1379 29.6114 71.6712 29.0781H71.2713V32.3781H74.0713ZM84.8992 41.1181C83.5659 41.1181 82.4792 40.8181 81.6392 40.2181C80.7992 39.6181 80.1792 38.7648 79.7792 37.6581C79.3926 36.5514 79.1992 35.2514 79.1992 33.7581C79.1992 32.2648 79.4059 30.9714 79.8192 29.8781C80.2459 28.7714 80.8792 27.9114 81.7192 27.2981C82.5592 26.6848 83.6192 26.3781 84.8992 26.3781C86.1792 26.3781 87.2392 26.6848 88.0792 27.2981C88.9326 27.9114 89.5659 28.7714 89.9792 29.8781C90.4059 30.9714 90.6192 32.2648 90.6192 33.7581C90.6192 35.2514 90.4192 36.5514 90.0192 37.6581C89.6326 38.7648 89.0192 39.6181 88.1792 40.2181C87.3392 40.8181 86.2459 41.1181 84.8992 41.1181ZM81.4392 33.4781C81.4392 33.8914 81.5259 34.2848 81.6992 34.6581C81.8859 35.0181 82.2259 35.3114 82.7192 35.5381C83.2259 35.7514 83.9526 35.8581 84.8992 35.8581C85.8592 35.8581 86.5859 35.7514 87.0792 35.5381C87.5859 35.3114 87.9259 35.0181 88.0992 34.6581C88.2859 34.2848 88.3792 33.8914 88.3792 33.4781C88.3792 33.0514 88.2859 32.6714 88.0992 32.3381C87.9259 31.9914 87.5859 31.7181 87.0792 31.5181C86.5859 31.3048 85.8592 31.1981 84.8992 31.1981C83.9526 31.1981 83.2259 31.3048 82.7192 31.5181C82.2259 31.7181 81.8859 31.9914 81.6992 32.3381C81.5259 32.6714 81.4392 33.0514 81.4392 33.4781ZM92.5211 43.0781C92.5211 42.7448 92.6344 42.4781 92.8611 42.2781C93.0878 42.0914 93.4411 41.9981 93.9211 41.9981C94.2944 41.9981 94.6278 42.0048 94.9211 42.0181C95.2278 42.0314 95.4278 42.0381 95.5211 42.0381L95.3611 41.1581C95.2944 41.1981 95.1544 41.2514 94.9411 41.3181C94.7278 41.3981 94.4211 41.4381 94.0211 41.4381C93.3678 41.4381 92.7944 41.2448 92.3011 40.8581C91.8211 40.4581 91.5811 39.8981 91.5811 39.1781C91.5811 38.4581 91.8144 37.8781 92.2811 37.4381C92.7478 36.9848 93.3478 36.7581 94.0811 36.7581C94.8144 36.7581 95.4078 36.9648 95.8611 37.3781C96.3278 37.7914 96.5611 38.4514 96.5611 39.3581C96.5611 39.8381 96.5344 40.3581 96.4811 40.9181C96.4411 41.4781 96.3344 42.0048 96.1611 42.4981C95.9878 42.9914 95.7211 43.3914 95.3611 43.6981C95.0144 44.0181 94.5344 44.1781 93.9211 44.1781C93.4411 44.1781 93.0878 44.0781 92.8611 43.8781C92.6344 43.6781 92.5211 43.4114 92.5211 43.0781ZM103.259 41.1181C101.925 41.1181 100.839 40.8181 99.9986 40.2181C99.1586 39.6181 98.5386 38.7648 98.1386 37.6581C97.7519 36.5514 97.5586 35.2514 97.5586 33.7581C97.5586 32.2648 97.7653 30.9714 98.1786 29.8781C98.6053 28.7714 99.2386 27.9114 100.079 27.2981C100.919 26.6848 101.979 26.3781 103.259 26.3781C104.539 26.3781 105.599 26.6848 106.439 27.2981C107.292 27.9114 107.925 28.7714 108.339 29.8781C108.765 30.9714 108.979 32.2648 108.979 33.7581C108.979 35.2514 108.779 36.5514 108.379 37.6581C107.992 38.7648 107.379 39.6181 106.539 40.2181C105.699 40.8181 104.605 41.1181 103.259 41.1181ZM99.7986 33.4781C99.7986 33.8914 99.8853 34.2848 100.059 34.6581C100.245 35.0181 100.585 35.3114 101.079 35.5381C101.585 35.7514 102.312 35.8581 103.259 35.8581C104.219 35.8581 104.945 35.7514 105.439 35.5381C105.945 35.3114 106.285 35.0181 106.459 34.6581C106.645 34.2848 106.739 33.8914 106.739 33.4781C106.739 33.0514 106.645 32.6714 106.459 32.3381C106.285 31.9914 105.945 31.7181 105.439 31.5181C104.945 31.3048 104.219 31.1981 103.259 31.1981C102.312 31.1981 101.585 31.3048 101.079 31.5181C100.585 31.7181 100.245 31.9914 100.059 32.3381C99.8853 32.6714 99.7986 33.0514 99.7986 33.4781ZM115.68 41.1181C114.347 41.1181 113.26 40.8181 112.42 40.2181C111.58 39.6181 110.96 38.7648 110.56 37.6581C110.174 36.5514 109.98 35.2514 109.98 33.7581C109.98 32.2648 110.187 30.9714 110.6 29.8781C111.027 28.7714 111.66 27.9114 112.5 27.2981C113.34 26.6848 114.4 26.3781 115.68 26.3781C116.96 26.3781 118.02 26.6848 118.86 27.2981C119.714 27.9114 120.347 28.7714 120.76 29.8781C121.187 30.9714 121.4 32.2648 121.4 33.7581C121.4 35.2514 121.2 36.5514 120.8 37.6581C120.414 38.7648 119.8 39.6181 118.96 40.2181C118.12 40.8181 117.027 41.1181 115.68 41.1181ZM112.22 33.4781C112.22 33.8914 112.307 34.2848 112.48 34.6581C112.667 35.0181 113.007 35.3114 113.5 35.5381C114.007 35.7514 114.734 35.8581 115.68 35.8581C116.64 35.8581 117.367 35.7514 117.86 35.5381C118.367 35.3114 118.707 35.0181 118.88 34.6581C119.067 34.2848 119.16 33.8914 119.16 33.4781C119.16 33.0514 119.067 32.6714 118.88 32.3381C118.707 31.9914 118.367 31.7181 117.86 31.5181C117.367 31.3048 116.64 31.1981 115.68 31.1981C114.734 31.1981 114.007 31.3048 113.5 31.5181C113.007 31.7181 112.667 31.9914 112.48 32.3381C112.307 32.6714 112.22 33.0514 112.22 33.4781ZM128.102 41.1181C126.769 41.1181 125.682 40.8181 124.842 40.2181C124.002 39.6181 123.382 38.7648 122.982 37.6581C122.596 36.5514 122.402 35.2514 122.402 33.7581C122.402 32.2648 122.609 30.9714 123.022 29.8781C123.449 28.7714 124.082 27.9114 124.922 27.2981C125.762 26.6848 126.822 26.3781 128.102 26.3781C129.382 26.3781 130.442 26.6848 131.282 27.2981C132.136 27.9114 132.769 28.7714 133.182 29.8781C133.609 30.9714 133.822 32.2648 133.822 33.7581C133.822 35.2514 133.622 36.5514 133.222 37.6581C132.836 38.7648 132.222 39.6181 131.382 40.2181C130.542 40.8181 129.449 41.1181 128.102 41.1181ZM124.642 33.4781C124.642 33.8914 124.729 34.2848 124.902 34.6581C125.089 35.0181 125.429 35.3114 125.922 35.5381C126.429 35.7514 127.156 35.8581 128.102 35.8581C129.062 35.8581 129.789 35.7514 130.282 35.5381C130.789 35.3114 131.129 35.0181 131.302 34.6581C131.489 34.2848 131.582 33.8914 131.582 33.4781C131.582 33.0514 131.489 32.6714 131.302 32.3381C131.129 31.9914 130.789 31.7181 130.282 31.5181C129.789 31.3048 129.062 31.1981 128.102 31.1981C127.156 31.1981 126.429 31.3048 125.922 31.5181C125.429 31.7181 125.089 31.9914 124.902 32.3381C124.729 32.6714 124.642 33.0514 124.642 33.4781ZM140.904 39.0181C140.371 39.0181 139.938 38.8648 139.604 38.5581C139.271 38.2514 139.104 37.8581 139.104 37.3781V35.7381H137.564C137.084 35.7381 136.691 35.5781 136.384 35.2581C136.078 34.9381 135.924 34.5181 135.924 33.9981C135.924 33.4648 136.078 33.0314 136.384 32.6981C136.691 32.3514 137.084 32.1781 137.564 32.1781H139.104V30.6781C139.104 30.1981 139.258 29.7848 139.564 29.4381C139.884 29.0914 140.331 28.9181 140.904 28.9181C141.451 28.9181 141.878 29.0914 142.184 29.4381C142.504 29.7848 142.664 30.2048 142.664 30.6981V32.1781H144.104C144.571 32.1781 144.978 32.3381 145.324 32.6581C145.671 32.9781 145.844 33.4248 145.844 33.9981C145.844 34.5314 145.671 34.9581 145.324 35.2781C144.978 35.5848 144.558 35.7381 144.064 35.7381H142.664V37.3781C142.664 37.8581 142.504 38.2514 142.184 38.5581C141.864 38.8648 141.438 39.0181 140.904 39.0181Z" fill="#4D2B12"/>
<path d="M164.852 37.0581V27.2581H168.842C169.374 27.2581 169.855 27.3934 170.284 27.6641C170.723 27.9254 171.073 28.2848 171.334 28.7421C171.596 29.1994 171.726 29.7081 171.726 30.2681C171.726 30.8281 171.596 31.3368 171.334 31.7941C171.073 32.2514 170.723 32.6201 170.284 32.9001C169.855 33.1708 169.374 33.3061 168.842 33.3061H166.364V37.0581H164.852ZM166.364 31.8501H168.814C169.066 31.8501 169.295 31.7801 169.5 31.6401C169.706 31.4908 169.869 31.2994 169.99 31.0661C170.121 30.8234 170.186 30.5574 170.186 30.2681C170.186 29.9788 170.121 29.7174 169.99 29.4841C169.869 29.2508 169.706 29.0641 169.5 28.9241C169.295 28.7841 169.066 28.7141 168.814 28.7141H166.364V31.8501ZM176.655 37.1981C175.899 37.1981 175.227 37.0394 174.639 36.7221C174.06 36.3954 173.603 35.9521 173.267 35.3921C172.94 34.8321 172.777 34.1881 172.777 33.4601C172.777 32.8814 172.87 32.3541 173.057 31.8781C173.243 31.4021 173.5 30.9914 173.827 30.6461C174.163 30.2914 174.559 30.0208 175.017 29.8341C175.483 29.6381 175.987 29.5401 176.529 29.5401C177.005 29.5401 177.448 29.6334 177.859 29.8201C178.269 29.9974 178.624 30.2448 178.923 30.5621C179.231 30.8794 179.464 31.2574 179.623 31.6961C179.791 32.1254 179.87 32.5968 179.861 33.1101L179.847 33.7261H173.841L173.519 32.5781H178.601L178.391 32.8161V32.4801C178.363 32.1721 178.26 31.8968 178.083 31.6541C177.905 31.4114 177.681 31.2201 177.411 31.0801C177.14 30.9401 176.846 30.8701 176.529 30.8701C176.025 30.8701 175.6 30.9681 175.255 31.1641C174.909 31.3508 174.648 31.6308 174.471 32.0041C174.293 32.3681 174.205 32.8208 174.205 33.3621C174.205 33.8754 174.312 34.3234 174.527 34.7061C174.741 35.0794 175.045 35.3688 175.437 35.5741C175.829 35.7794 176.281 35.8821 176.795 35.8821C177.159 35.8821 177.495 35.8214 177.803 35.7001C178.12 35.5788 178.461 35.3594 178.825 35.0421L179.553 36.0641C179.329 36.2881 179.053 36.4841 178.727 36.6521C178.409 36.8201 178.069 36.9554 177.705 37.0581C177.35 37.1514 177 37.1981 176.655 37.1981ZM182.338 37.0581V27.8321H183.78V37.0581H182.338ZM180.812 31.1081V29.7081H185.488V31.1081H180.812ZM191.089 37.0581V27.2581H195.079C195.611 27.2581 196.091 27.3934 196.521 27.6641C196.959 27.9254 197.309 28.2848 197.571 28.7421C197.832 29.1994 197.963 29.7081 197.963 30.2681C197.963 30.8281 197.832 31.3368 197.571 31.7941C197.309 32.2514 196.959 32.6201 196.521 32.9001C196.091 33.1708 195.611 33.3061 195.079 33.3061H192.601V37.0581H191.089ZM192.601 31.8501H195.051C195.303 31.8501 195.531 31.7801 195.737 31.6401C195.942 31.4908 196.105 31.2994 196.227 31.0661C196.357 30.8234 196.423 30.5574 196.423 30.2681C196.423 29.9788 196.357 29.7174 196.227 29.4841C196.105 29.2508 195.942 29.0641 195.737 28.9241C195.531 28.7841 195.303 28.7141 195.051 28.7141H192.601V31.8501ZM202.289 37.1981C201.682 37.1981 201.127 37.0301 200.623 36.6941C200.128 36.3581 199.732 35.9008 199.433 35.3221C199.134 34.7434 198.985 34.0901 198.985 33.3621C198.985 32.6248 199.134 31.9714 199.433 31.4021C199.741 30.8234 200.152 30.3708 200.665 30.0441C201.188 29.7174 201.771 29.5541 202.415 29.5541C202.798 29.5541 203.148 29.6101 203.465 29.7221C203.782 29.8341 204.058 29.9928 204.291 30.1981C204.534 30.3941 204.73 30.6228 204.879 30.8841C205.038 31.1454 205.136 31.4254 205.173 31.7241L204.851 31.6121V29.7081H206.307V37.0581H204.851V35.3081L205.187 35.2101C205.131 35.4621 205.014 35.7094 204.837 35.9521C204.669 36.1854 204.45 36.3954 204.179 36.5821C203.918 36.7688 203.624 36.9181 203.297 37.0301C202.98 37.1421 202.644 37.1981 202.289 37.1981ZM202.667 35.8681C203.106 35.8681 203.493 35.7608 203.829 35.5461C204.165 35.3314 204.426 35.0374 204.613 34.6641C204.809 34.2814 204.907 33.8474 204.907 33.3621C204.907 32.8861 204.809 32.4614 204.613 32.0881C204.426 31.7148 204.165 31.4208 203.829 31.2061C203.493 30.9914 203.106 30.8841 202.667 30.8841C202.238 30.8841 201.855 30.9914 201.519 31.2061C201.192 31.4208 200.931 31.7148 200.735 32.0881C200.548 32.4614 200.455 32.8861 200.455 33.3621C200.455 33.8474 200.548 34.2814 200.735 34.6641C200.931 35.0374 201.192 35.3314 201.519 35.5461C201.855 35.7608 202.238 35.8681 202.667 35.8681ZM208.321 37.0581V29.7081H209.777V32.0181L209.637 31.4581C209.739 31.1034 209.912 30.7814 210.155 30.4921C210.407 30.2028 210.691 29.9741 211.008 29.8061C211.335 29.6381 211.671 29.5541 212.017 29.5541C212.175 29.5541 212.325 29.5681 212.465 29.5961C212.614 29.6241 212.731 29.6568 212.815 29.6941L212.437 31.2621C212.325 31.2154 212.199 31.1781 212.059 31.1501C211.928 31.1128 211.797 31.0941 211.667 31.0941C211.415 31.0941 211.172 31.1454 210.939 31.2481C210.715 31.3414 210.514 31.4768 210.337 31.6541C210.169 31.8221 210.033 32.0228 209.931 32.2561C209.828 32.4801 209.777 32.7274 209.777 32.9981V37.0581H208.321ZM217.083 37.1981C216.327 37.1981 215.655 37.0394 215.067 36.7221C214.488 36.3954 214.031 35.9521 213.695 35.3921C213.368 34.8321 213.205 34.1881 213.205 33.4601C213.205 32.8814 213.298 32.3541 213.485 31.8781C213.671 31.4021 213.928 30.9914 214.255 30.6461C214.591 30.2914 214.987 30.0208 215.445 29.8341C215.911 29.6381 216.415 29.5401 216.957 29.5401C217.433 29.5401 217.876 29.6334 218.287 29.8201C218.697 29.9974 219.052 30.2448 219.351 30.5621C219.659 30.8794 219.892 31.2574 220.051 31.6961C220.219 32.1254 220.298 32.5968 220.289 33.1101L220.275 33.7261H214.269L213.947 32.5781H219.029L218.819 32.8161V32.4801C218.791 32.1721 218.688 31.8968 218.511 31.6541C218.333 31.4114 218.109 31.2201 217.839 31.0801C217.568 30.9401 217.274 30.8701 216.957 30.8701C216.453 30.8701 216.028 30.9681 215.683 31.1641C215.337 31.3508 215.076 31.6308 214.899 32.0041C214.721 32.3681 214.633 32.8208 214.633 33.3621C214.633 33.8754 214.74 34.3234 214.955 34.7061C215.169 35.0794 215.473 35.3688 215.865 35.5741C216.257 35.7794 216.709 35.8821 217.223 35.8821C217.587 35.8821 217.923 35.8214 218.231 35.7001C218.548 35.5788 218.889 35.3594 219.253 35.0421L219.981 36.0641C219.757 36.2881 219.481 36.4841 219.155 36.6521C218.837 36.8201 218.497 36.9554 218.133 37.0581C217.778 37.1514 217.428 37.1981 217.083 37.1981ZM221.856 37.0581V29.7081H223.298V31.2201L223.046 31.3881C223.139 31.0614 223.321 30.7628 223.592 30.4921C223.862 30.2121 224.184 29.9881 224.558 29.8201C224.931 29.6428 225.314 29.5541 225.706 29.5541C226.266 29.5541 226.732 29.6661 227.106 29.8901C227.479 30.1048 227.759 30.4361 227.946 30.8841C228.132 31.3321 228.226 31.8968 228.226 32.5781V37.0581H226.784V32.6761C226.784 32.2561 226.728 31.9108 226.616 31.6401C226.504 31.3601 226.331 31.1594 226.098 31.0381C225.864 30.9074 225.575 30.8514 225.23 30.8701C224.95 30.8701 224.693 30.9168 224.46 31.0101C224.226 31.0941 224.021 31.2154 223.844 31.3741C223.676 31.5328 223.54 31.7194 223.438 31.9341C223.344 32.1394 223.298 32.3634 223.298 32.6061V37.0581H222.584C222.462 37.0581 222.341 37.0581 222.22 37.0581C222.098 37.0581 221.977 37.0581 221.856 37.0581ZM231.092 37.0581V27.8321H232.534V37.0581H231.092ZM229.566 31.1081V29.7081H234.242V31.1081H229.566ZM238.278 37.1981C237.662 37.1981 237.107 37.0908 236.612 36.8761C236.118 36.6614 235.707 36.3441 235.38 35.9241L236.36 35.0841C236.64 35.4108 236.944 35.6488 237.27 35.7981C237.606 35.9381 237.984 36.0081 238.404 36.0081C238.572 36.0081 238.726 35.9894 238.866 35.9521C239.016 35.9054 239.142 35.8401 239.244 35.7561C239.356 35.6721 239.44 35.5741 239.496 35.4621C239.552 35.3408 239.58 35.2101 239.58 35.0701C239.58 34.8274 239.492 34.6314 239.314 34.4821C239.221 34.4168 239.072 34.3468 238.866 34.2721C238.67 34.1881 238.414 34.1041 238.096 34.0201C237.555 33.8801 237.112 33.7214 236.766 33.5441C236.421 33.3668 236.155 33.1661 235.968 32.9421C235.828 32.7648 235.726 32.5734 235.66 32.3681C235.595 32.1534 235.562 31.9201 235.562 31.6681C235.562 31.3601 235.628 31.0801 235.758 30.8281C235.898 30.5668 236.085 30.3428 236.318 30.1561C236.561 29.9601 236.841 29.8108 237.158 29.7081C237.485 29.6054 237.83 29.5541 238.194 29.5541C238.54 29.5541 238.88 29.6008 239.216 29.6941C239.562 29.7874 239.879 29.9228 240.168 30.1001C240.458 30.2774 240.7 30.4874 240.896 30.7301L240.07 31.6401C239.893 31.4628 239.697 31.3088 239.482 31.1781C239.277 31.0381 239.067 30.9308 238.852 30.8561C238.638 30.7814 238.442 30.7441 238.264 30.7441C238.068 30.7441 237.891 30.7628 237.732 30.8001C237.574 30.8374 237.438 30.8934 237.326 30.9681C237.224 31.0428 237.144 31.1361 237.088 31.2481C237.032 31.3601 237.004 31.4861 237.004 31.6261C237.014 31.7474 237.042 31.8641 237.088 31.9761C237.144 32.0788 237.219 32.1674 237.312 32.2421C237.415 32.3168 237.569 32.3961 237.774 32.4801C237.98 32.5641 238.241 32.6434 238.558 32.7181C239.025 32.8394 239.408 32.9748 239.706 33.1241C240.014 33.2641 240.257 33.4274 240.434 33.6141C240.621 33.7914 240.752 33.9968 240.826 34.2301C240.901 34.4634 240.938 34.7248 240.938 35.0141C240.938 35.4341 240.817 35.8121 240.574 36.1481C240.341 36.4748 240.024 36.7314 239.622 36.9181C239.221 37.1048 238.773 37.1981 238.278 37.1981Z" fill="#4D2B12" fill-opacity="0.7"/>
</g>
<defs>
<filter id="filter0_dd_4766_15486" x="0.5" y="0.558105" width="270" height="83" filterUnits="userSpaceOnUse" color-interpolation-filters="sRGB">
<feFlood flood-opacity="0" result="BackgroundImageFix"/>
<feColorMatrix in="SourceAlpha" type="matrix" values="0 0 0 0 0 0 0 0 0 0 0 0 0 0 0 0 0 0 127 0" result="hardAlpha"/>
<feMorphology radius="4" operator="erode" in="SourceAlpha" result="effect1_dropShadow_4766_15486"/>
<feOffset dy="4"/>
<feGaussianBlur stdDeviation="3"/>
<feComposite in2="hardAlpha" operator="out"/>
<feColorMatrix type="matrix" values="0 0 0 0 0 0 0 0 0 0 0 0 0 0 0 0 0 0 0.1 0"/>
<feBlend mode="normal" in2="BackgroundImageFix" result="effect1_dropShadow_4766_15486"/>
<feColorMatrix in="SourceAlpha" type="matrix" values="0 0 0 0 0 0 0 0 0 0 0 0 0 0 0 0 0 0 127 0" result="hardAlpha"/>
<feMorphology radius="3" operator="erode" in="SourceAlpha" result="effect2_dropShadow_4766_15486"/>
<feOffset dy="10"/>
<feGaussianBlur stdDeviation="7.5"/>
<feComposite in2="hardAlpha" operator="out"/>
<feColorMatrix type="matrix" values="0 0 0 0 0 0 0 0 0 0 0 0 0 0 0 0 0 0 0.1 0"/>
<feBlend mode="normal" in2="effect1_dropShadow_4766_15486" result="effect2_dropShadow_4766_15486"/>
<feBlend mode="normal" in="SourceGraphic" in2="effect2_dropShadow_4766_15486" result="shape"/>
</filter>
</defs>
</svg>
