<svg width="49" height="49" viewBox="0 0 49 49" fill="none" xmlns="http://www.w3.org/2000/svg">
<rect x="0.604492" y="0.357422" width="48" height="48" rx="24" fill="#BFD6F6"/>
<path d="M31.6045 33.3574V31.3574C31.6045 30.2966 31.1831 29.2791 30.4329 28.529C29.6828 27.7789 28.6654 27.3574 27.6045 27.3574H21.6045C20.5436 27.3574 19.5262 27.7789 18.7761 28.529C18.0259 29.2791 17.6045 30.2966 17.6045 31.3574V33.3574" stroke="#4D2B12" stroke-width="2" stroke-linecap="round" stroke-linejoin="round"/>
<path d="M24.6045 23.3574C26.8136 23.3574 28.6045 21.5666 28.6045 19.3574C28.6045 17.1483 26.8136 15.3574 24.6045 15.3574C22.3954 15.3574 20.6045 17.1483 20.6045 19.3574C20.6045 21.5666 22.3954 23.3574 24.6045 23.3574Z" stroke="#4D2B12" stroke-width="2" stroke-linecap="round" stroke-linejoin="round"/>
</svg>
