<svg width="124" height="121" viewBox="0 0 124 121" fill="none" xmlns="http://www.w3.org/2000/svg">
<ellipse cx="62" cy="60.1582" rx="62" ry="60" fill="#4D2B12"/>
<path d="M46.5312 77.9082V84.752" stroke="#F4E8DA" stroke-width="3" stroke-linecap="round" stroke-linejoin="round"/>
<path d="M78.4688 77.9082V84.752" stroke="#F4E8DA" stroke-width="3" stroke-linecap="round" stroke-linejoin="round"/>
<path d="M83.0312 50.5332H64.7812V64.2207H83.0312V50.5332Z" stroke="#F4E8DA" stroke-width="3" stroke-linecap="round" stroke-linejoin="round"/>
<path d="M83.0312 52.8145H94.4375V64.2207C94.4375 67.8509 92.9954 71.3323 90.4285 73.8992C87.8616 76.4661 84.3802 77.9082 80.75 77.9082H44.25C40.6198 77.9082 37.1384 76.4661 34.5715 73.8992C32.0046 71.3323 30.5625 67.8509 30.5625 64.2207V52.8145H64.7812" stroke="#F4E8DA" stroke-width="3" stroke-linecap="round" stroke-linejoin="round"/>
<path d="M41.9688 52.8145V37.9863C41.9688 36.4738 42.5696 35.0232 43.6392 33.9536C44.7087 32.8841 46.1593 32.2832 47.6719 32.2832C49.0001 32.2801 50.2895 32.7307 51.3267 33.5604C52.3638 34.3902 53.0865 35.5492 53.375 36.8457" stroke="#F4E8DA" stroke-width="3" stroke-linecap="round" stroke-linejoin="round"/>
</svg>
