<svg width="20" height="21" viewBox="0 0 20 21" fill="none" xmlns="http://www.w3.org/2000/svg">
<path d="M6.66634 18.6169C7.12658 18.6169 7.49967 18.2438 7.49967 17.7835C7.49967 17.3233 7.12658 16.9502 6.66634 16.9502C6.2061 16.9502 5.83301 17.3233 5.83301 17.7835C5.83301 18.2438 6.2061 18.6169 6.66634 18.6169Z" stroke="#4D2B12" stroke-width="1.66667" stroke-linecap="round" stroke-linejoin="round"/>
<path d="M15.8333 18.6169C16.2936 18.6169 16.6667 18.2438 16.6667 17.7835C16.6667 17.3233 16.2936 16.9502 15.8333 16.9502C15.3731 16.9502 15 17.3233 15 17.7835C15 18.2438 15.3731 18.6169 15.8333 18.6169Z" stroke="#4D2B12" stroke-width="1.66667" stroke-linecap="round" stroke-linejoin="round"/>
<path d="M1.70801 1.99219H3.37467L5.59134 12.3422C5.67266 12.7212 5.88357 13.0601 6.18777 13.3004C6.49197 13.5407 6.87043 13.6675 7.25801 13.6589H15.408C15.7873 13.6582 16.1551 13.5283 16.4505 13.2904C16.746 13.0525 16.9515 12.721 17.033 12.3505L18.408 6.15885H4.26634" stroke="#4D2B12" stroke-width="1.66667" stroke-linecap="round" stroke-linejoin="round"/>
</svg>
