<svg width="20" height="21" viewBox="0 0 20 21" fill="none" xmlns="http://www.w3.org/2000/svg">
<path d="M1.66699 8.20031C1.66701 7.27298 1.94832 6.36746 2.47377 5.60336C2.99922 4.83926 3.74409 4.25253 4.61 3.92064C5.47591 3.58876 6.42212 3.52735 7.32367 3.74451C8.22522 3.96168 9.03968 4.44721 9.65949 5.13698C9.70315 5.18366 9.75593 5.22087 9.81456 5.24631C9.87318 5.27175 9.93641 5.28488 10.0003 5.28488C10.0642 5.28488 10.1275 5.27175 10.1861 5.24631C10.2447 5.22087 10.2975 5.18366 10.3412 5.13698C10.959 4.44273 11.7737 3.95312 12.6767 3.73331C13.5797 3.51351 14.5282 3.57393 15.3961 3.90655C16.2639 4.23916 17.0098 4.82819 17.5346 5.59523C18.0594 6.36227 18.3381 7.27094 18.3337 8.20031C18.3337 10.1086 17.0837 11.5336 15.8337 12.7836L11.257 17.2111C11.1017 17.3895 10.9103 17.5327 10.6954 17.6314C10.4805 17.7301 10.247 17.7818 10.0106 17.7833C9.77411 17.7848 9.54003 17.736 9.3239 17.6401C9.10776 17.5442 8.91452 17.4033 8.75699 17.227L4.16699 12.7836C2.91699 11.5336 1.66699 10.117 1.66699 8.20031Z" stroke="#4D2B12" stroke-width="1.66667" stroke-linecap="round" stroke-linejoin="round"/>
</svg>
