<svg width="49" height="48" viewBox="0 0 49 48" fill="none" xmlns="http://www.w3.org/2000/svg">
<rect x="0.680664" y="8.51074" width="40" height="40" rx="20" transform="rotate(-12 0.680664 8.51074)" fill="#BFD6F6"/>
<path d="M22.1766 18.2565C23.257 18.0269 23.9467 16.9648 23.7171 15.8844C23.4874 14.804 22.4254 14.1143 21.345 14.3439C20.2645 14.5736 19.5748 15.6356 19.8045 16.7161C20.0341 17.7965 21.0962 18.4862 22.1766 18.2565Z" stroke="#4D2B12" stroke-width="2" stroke-linecap="round" stroke-linejoin="round"/>
<path d="M29.8534 20.7136C30.9338 20.4839 31.6235 19.4219 31.3938 18.3414C31.1642 17.261 30.1022 16.5713 29.0217 16.801C27.9413 17.0306 27.2516 18.0927 27.4813 19.1731C27.7109 20.2535 28.7729 20.9432 29.8534 20.7136Z" stroke="#4D2B12" stroke-width="2" stroke-linecap="round" stroke-linejoin="round"/>
<path d="M33.4725 28.1208C34.5529 27.8911 35.2426 26.8291 35.013 25.7487C34.7833 24.6682 33.7213 23.9785 32.6409 24.2082C31.5604 24.4379 30.8707 25.4999 31.1004 26.5803C31.33 27.6608 32.3921 28.3504 33.4725 28.1208Z" stroke="#4D2B12" stroke-width="2" stroke-linecap="round" stroke-linejoin="round"/>
<path d="M21.0514 22.5833C21.6935 22.4468 22.3563 22.4382 23.0017 22.5578C23.6472 22.6774 24.2628 22.923 24.8133 23.2806C25.3639 23.6381 25.8386 24.1006 26.2105 24.6416C26.5823 25.1826 26.8439 25.7915 26.9804 26.4336L27.7079 29.8564C27.8815 30.6744 27.7564 31.5276 27.3553 32.2614C26.9541 32.9952 26.3034 33.561 25.521 33.8564C24.7387 34.1518 23.8764 34.1573 23.0904 33.8718C22.3043 33.5863 21.6465 33.0288 21.2361 32.3001C20.5327 31.0425 19.4651 30.3478 18.0334 30.2161C17.2013 30.1375 16.4247 29.7637 15.8443 29.1623C15.2639 28.5608 14.9179 27.7715 14.869 26.9371C14.8201 26.1027 15.0715 25.2783 15.5777 24.6132C16.0838 23.948 16.8114 23.4861 17.6287 23.3109L21.0514 22.5833Z" stroke="#4D2B12" stroke-width="2" stroke-linecap="round" stroke-linejoin="round"/>
</svg>
