<svg width="289" height="41" viewBox="0 0 289 41" fill="none" xmlns="http://www.w3.org/2000/svg">
<rect x="0.400391" y="0.194336" width="40" height="40" rx="20" fill="#FFFDF8" fill-opacity="0.1"/>
<path d="M25.4001 11.8613H22.9001C21.795 11.8613 20.7352 12.3003 19.9538 13.0817C19.1724 13.8631 18.7334 14.9229 18.7334 16.028V18.528H16.2334V21.8613H18.7334V28.528H22.0667V21.8613H24.5667L25.4001 18.528H22.0667V16.028C22.0667 15.807 22.1545 15.595 22.3108 15.4387C22.4671 15.2825 22.6791 15.1947 22.9001 15.1947H25.4001V11.8613Z" stroke="#FFFEF9" stroke-width="1.66667" stroke-linecap="round" stroke-linejoin="round"/>
<rect x="52.4004" y="0.194336" width="40" height="40" rx="20" fill="#FFFDF8" fill-opacity="0.1"/>
<path d="M80.734 13.528C80.734 13.528 80.1507 15.278 79.0674 16.3613C80.4007 24.6947 71.234 30.778 64.0674 26.028C65.9007 26.1113 67.734 25.528 69.0674 24.3613C64.9007 23.1113 62.8174 18.1947 64.9007 14.3613C66.734 16.528 69.5674 17.778 72.4007 17.6947C71.6507 14.1947 75.734 12.1947 78.234 14.528C79.1507 14.528 80.734 13.528 80.734 13.528Z" stroke="#FFFEF9" stroke-width="1.66667" stroke-linecap="round" stroke-linejoin="round"/>
<rect x="104.4" y="0.194336" width="40" height="40" rx="20" fill="#FFFDF8" fill-opacity="0.1"/>
<path d="M128.567 11.8613H120.234C117.933 11.8613 116.067 13.7268 116.067 16.028V24.3613C116.067 26.6625 117.933 28.528 120.234 28.528H128.567C130.869 28.528 132.734 26.6625 132.734 24.3613V16.028C132.734 13.7268 130.869 11.8613 128.567 11.8613Z" stroke="#FFFEF9" stroke-width="1.66667" stroke-linecap="round" stroke-linejoin="round"/>
<path d="M127.734 19.6696C127.837 20.3631 127.719 21.0714 127.396 21.6938C127.073 22.3161 126.562 22.8208 125.935 23.136C125.309 23.4512 124.6 23.5609 123.907 23.4495C123.215 23.3381 122.576 23.0113 122.08 22.5156C121.584 22.0198 121.257 21.3803 121.146 20.6881C121.034 19.9959 121.144 19.2862 121.459 18.6599C121.775 18.0336 122.279 17.5227 122.902 17.1998C123.524 16.8769 124.232 16.7584 124.926 16.8613C125.633 16.9662 126.288 17.2958 126.794 17.8015C127.3 18.3072 127.629 18.9622 127.734 19.6696Z" stroke="#FFFEF9" stroke-width="1.66667" stroke-linecap="round" stroke-linejoin="round"/>
<path d="M128.983 15.6113H128.992" stroke="#FFFEF9" stroke-width="1.66667" stroke-linecap="round" stroke-linejoin="round"/>
</svg>
