<svg width="1249" height="33" viewBox="0 0 1249 33" fill="none" xmlns="http://www.w3.org/2000/svg">
<path d="M583.067 8.92122C584.54 8.92122 585.734 7.72732 585.734 6.25456C585.734 4.7818 584.54 3.58789 583.067 3.58789C581.594 3.58789 580.4 4.7818 580.4 6.25456C580.4 7.72732 581.594 8.92122 583.067 8.92122Z" stroke="#FFFEF9" stroke-width="2.66667" stroke-linecap="round" stroke-linejoin="round"/>
<path d="M592.4 14.2542C593.873 14.2542 595.067 13.0603 595.067 11.5876C595.067 10.1148 593.873 8.9209 592.4 8.9209C590.927 8.9209 589.733 10.1148 589.733 11.5876C589.733 13.0603 590.927 14.2542 592.4 14.2542Z" stroke="#FFFEF9" stroke-width="2.66667" stroke-linecap="round" stroke-linejoin="round"/>
<path d="M595.067 24.9212C596.54 24.9212 597.734 23.7273 597.734 22.2546C597.734 20.7818 596.54 19.5879 595.067 19.5879C593.594 19.5879 592.4 20.7818 592.4 22.2546C592.4 23.7273 593.594 24.9212 595.067 24.9212Z" stroke="#FFFEF9" stroke-width="2.66667" stroke-linecap="round" stroke-linejoin="round"/>
<path d="M580.4 14.2539C581.276 14.2539 582.143 14.4263 582.952 14.7614C583.76 15.0964 584.495 15.5875 585.114 16.2065C585.733 16.8256 586.225 17.5605 586.56 18.3694C586.895 19.1782 587.067 20.0451 587.067 20.9206V25.5872C587.067 26.7025 586.667 27.7808 585.94 28.6268C585.213 29.4727 584.208 30.0304 583.105 30.1989C582.003 30.3673 580.876 30.1353 579.93 29.545C578.984 28.9546 578.28 28.0449 577.947 26.9806C577.378 25.145 576.178 23.9428 574.347 23.3739C573.283 23.0407 572.374 22.3378 571.784 21.3923C571.193 20.4467 570.961 19.3211 571.128 18.2191C571.296 17.117 571.852 16.1114 572.697 15.3841C573.542 14.6568 574.619 14.2559 575.734 14.2539H580.4Z" stroke="#FFFEF9" stroke-width="2.66667" stroke-linecap="round" stroke-linejoin="round"/>
<path d="M623.067 8.92122C624.54 8.92122 625.734 7.72732 625.734 6.25456C625.734 4.7818 624.54 3.58789 623.067 3.58789C621.594 3.58789 620.4 4.7818 620.4 6.25456C620.4 7.72732 621.594 8.92122 623.067 8.92122Z" stroke="#FFFEF9" stroke-width="2.66667" stroke-linecap="round" stroke-linejoin="round"/>
<path d="M632.4 14.2542C633.873 14.2542 635.067 13.0603 635.067 11.5876C635.067 10.1148 633.873 8.9209 632.4 8.9209C630.927 8.9209 629.733 10.1148 629.733 11.5876C629.733 13.0603 630.927 14.2542 632.4 14.2542Z" stroke="#FFFEF9" stroke-width="2.66667" stroke-linecap="round" stroke-linejoin="round"/>
<path d="M635.067 24.9212C636.54 24.9212 637.734 23.7273 637.734 22.2546C637.734 20.7818 636.54 19.5879 635.067 19.5879C633.594 19.5879 632.4 20.7818 632.4 22.2546C632.4 23.7273 633.594 24.9212 635.067 24.9212Z" stroke="#FFFEF9" stroke-width="2.66667" stroke-linecap="round" stroke-linejoin="round"/>
<path d="M620.4 14.2539C621.276 14.2539 622.143 14.4263 622.952 14.7614C623.76 15.0964 624.495 15.5875 625.114 16.2065C625.733 16.8256 626.225 17.5605 626.56 18.3694C626.895 19.1782 627.067 20.0451 627.067 20.9206V25.5872C627.067 26.7025 626.667 27.7808 625.94 28.6268C625.213 29.4727 624.208 30.0304 623.105 30.1989C622.003 30.3673 620.876 30.1353 619.93 29.545C618.984 28.9546 618.28 28.0449 617.947 26.9806C617.378 25.145 616.178 23.9428 614.347 23.3739C613.283 23.0407 612.374 22.3378 611.784 21.3923C611.193 20.4467 610.961 19.3211 611.128 18.2191C611.296 17.117 611.852 16.1114 612.697 15.3841C613.542 14.6568 614.619 14.2559 615.734 14.2539H620.4Z" stroke="#FFFEF9" stroke-width="2.66667" stroke-linecap="round" stroke-linejoin="round"/>
<path d="M663.067 8.92122C664.54 8.92122 665.734 7.72732 665.734 6.25456C665.734 4.7818 664.54 3.58789 663.067 3.58789C661.594 3.58789 660.4 4.7818 660.4 6.25456C660.4 7.72732 661.594 8.92122 663.067 8.92122Z" stroke="#FFFEF9" stroke-width="2.66667" stroke-linecap="round" stroke-linejoin="round"/>
<path d="M672.4 14.2542C673.873 14.2542 675.067 13.0603 675.067 11.5876C675.067 10.1148 673.873 8.9209 672.4 8.9209C670.927 8.9209 669.733 10.1148 669.733 11.5876C669.733 13.0603 670.927 14.2542 672.4 14.2542Z" stroke="#FFFEF9" stroke-width="2.66667" stroke-linecap="round" stroke-linejoin="round"/>
<path d="M675.067 24.9212C676.54 24.9212 677.734 23.7273 677.734 22.2546C677.734 20.7818 676.54 19.5879 675.067 19.5879C673.594 19.5879 672.4 20.7818 672.4 22.2546C672.4 23.7273 673.594 24.9212 675.067 24.9212Z" stroke="#FFFEF9" stroke-width="2.66667" stroke-linecap="round" stroke-linejoin="round"/>
<path d="M660.4 14.2539C661.276 14.2539 662.143 14.4263 662.952 14.7614C663.76 15.0964 664.495 15.5875 665.114 16.2065C665.733 16.8256 666.225 17.5605 666.56 18.3694C666.895 19.1782 667.067 20.0451 667.067 20.9206V25.5872C667.067 26.7025 666.667 27.7808 665.94 28.6268C665.213 29.4727 664.208 30.0304 663.105 30.1989C662.003 30.3673 660.876 30.1353 659.93 29.545C658.984 28.9546 658.28 28.0449 657.947 26.9806C657.378 25.145 656.178 23.9428 654.347 23.3739C653.283 23.0407 652.374 22.3378 651.784 21.3923C651.193 20.4467 650.961 19.3211 651.128 18.2191C651.296 17.117 651.852 16.1114 652.697 15.3841C653.542 14.6568 654.619 14.2559 655.734 14.2539H660.4Z" stroke="#FFFEF9" stroke-width="2.66667" stroke-linecap="round" stroke-linejoin="round"/>
</svg>
