<svg width="21" height="21" viewBox="0 0 21 21" fill="none" xmlns="http://www.w3.org/2000/svg">
<path d="M10.2085 2.67055C10.2451 2.59677 10.3015 2.53466 10.3714 2.49124C10.4414 2.44781 10.522 2.4248 10.6044 2.4248C10.6867 2.4248 10.7674 2.44781 10.8373 2.49124C10.9073 2.53466 10.9637 2.59677 11.0002 2.67055L12.9252 6.56972C13.052 6.82636 13.2392 7.04839 13.4707 7.21676C13.7022 7.38513 13.9711 7.49481 14.2544 7.53638L18.5594 8.16638C18.6409 8.1782 18.7176 8.21261 18.7806 8.26572C18.8436 8.31882 18.8906 8.38851 18.916 8.46689C18.9415 8.54527 18.9446 8.62922 18.9249 8.70925C18.9051 8.78927 18.8634 8.86218 18.8044 8.91972L15.691 11.9514C15.4857 12.1515 15.3321 12.3985 15.2434 12.6711C15.1547 12.9437 15.1336 13.2338 15.1819 13.5164L15.9169 17.7997C15.9313 17.8812 15.9225 17.9652 15.8914 18.042C15.8604 18.1187 15.8085 18.1852 15.7415 18.2339C15.6745 18.2825 15.5952 18.3114 15.5126 18.3171C15.43 18.3229 15.3474 18.3053 15.2744 18.2664L11.426 16.243C11.1725 16.1099 10.8903 16.0403 10.6039 16.0403C10.3175 16.0403 10.0354 16.1099 9.78186 16.243L5.93436 18.2664C5.86131 18.3051 5.77886 18.3225 5.69641 18.3166C5.61395 18.3107 5.5348 18.2819 5.46794 18.2332C5.40109 18.1846 5.34923 18.1182 5.31824 18.0416C5.28726 17.9649 5.27841 17.8811 5.2927 17.7997L6.02686 13.5172C6.07536 13.2345 6.05435 12.9442 5.96565 12.6714C5.87694 12.3986 5.7232 12.1515 5.5177 11.9514L2.40436 8.92055C2.34486 8.86308 2.30269 8.79005 2.28267 8.70978C2.26264 8.62951 2.26556 8.54523 2.2911 8.46654C2.31663 8.38785 2.36375 8.31792 2.42709 8.2647C2.49044 8.21149 2.56745 8.17713 2.64936 8.16555L6.95353 7.53638C7.23708 7.49513 7.50636 7.3856 7.73818 7.21721C7.97001 7.04881 8.15745 6.82661 8.28436 6.56972L10.2085 2.67055Z" fill="#FEC7E4" stroke="#FEC7E4" stroke-width="1.66667" stroke-linecap="round" stroke-linejoin="round"/>
</svg>
