<svg width="47" height="54" viewBox="0 0 47 54" fill="none" xmlns="http://www.w3.org/2000/svg">
<path fill-rule="evenodd" clip-rule="evenodd" d="M32.0749 33.2694C31.3895 35.815 34.1517 38.7634 38.2443 39.8547C42.3369 40.946 46.2102 39.7671 46.8956 37.2215C47.581 34.676 44.8189 31.7276 40.7263 30.6363C36.6337 29.545 32.7603 30.7239 32.0749 33.2694ZM40.7263 22.485C36.6336 23.5764 32.7603 22.3975 32.0749 19.8519C31.3895 17.3063 34.1516 14.358 38.2443 13.2666C42.3369 12.1753 46.2102 13.3542 46.8956 15.8998C47.581 18.4454 44.8189 21.3937 40.7263 22.485ZM3.09053 29.1311C-8.48486 39.1064 15.2355 64.6246 28.4519 34.3431C30.5118 29.6235 30.5118 24.2259 28.4519 19.5063C15.2355 -10.7751 -8.48486 14.7431 3.09053 24.7184C4.25764 25.7242 4.25764 28.1253 3.09053 29.1311ZM31.5891 7.7931C29.1923 10.1784 26.035 10.9035 24.537 9.41271C23.039 7.9219 23.7676 4.77972 26.1644 2.39444C28.5612 0.00915727 31.7186 -0.71596 33.2166 0.77484C34.7146 2.26564 33.9859 5.40783 31.5891 7.7931ZM24.537 44.5873C23.0389 46.0781 23.7676 49.2203 26.1644 51.6056C28.5612 53.9908 31.7186 54.716 33.2166 53.2252C34.7146 51.7344 33.9859 48.5922 31.5891 46.2069C29.1923 43.8216 26.035 43.0965 24.537 44.5873Z" fill="#FEC7E4"/>
</svg>
