<svg width="40" height="40" viewBox="0 0 40 40" fill="none" xmlns="http://www.w3.org/2000/svg">
<path d="M32.5 6.25H7.5C6.80964 6.25 6.25 6.80964 6.25 7.5V32.5C6.25 33.1904 6.80964 33.75 7.5 33.75H32.5C33.1904 33.75 33.75 33.1904 33.75 32.5V7.5C33.75 6.80964 33.1904 6.25 32.5 6.25Z" stroke="#4D2B12" stroke-width="2" stroke-linecap="round" stroke-linejoin="round"/>
<path d="M27.5 3.75V8.75" stroke="#4D2B12" stroke-width="2" stroke-linecap="round" stroke-linejoin="round"/>
<path d="M12.5 3.75V8.75" stroke="#4D2B12" stroke-width="2" stroke-linecap="round" stroke-linejoin="round"/>
<path d="M20 18.75C20 17.7554 20.3951 16.8016 21.0983 16.0983C21.8016 15.3951 22.7554 15 23.75 15C24.7446 15 25.6984 15.3951 26.4017 16.0983C27.1049 16.8016 27.5 17.7554 27.5 18.75C27.5 23.75 20 27.5 20 27.5C20 27.5 12.5 23.75 12.5 18.75C12.5 17.7554 12.8951 16.8016 13.5983 16.0983C14.3016 15.3951 15.2554 15 16.25 15C17.2446 15 18.1984 15.3951 18.9017 16.0983C19.6049 16.8016 20 17.7554 20 18.75Z" stroke="#4D2B12" stroke-width="2" stroke-linecap="round" stroke-linejoin="round"/>
</svg>
