<svg width="101" height="100" viewBox="0 0 101 100" fill="none" xmlns="http://www.w3.org/2000/svg">
<circle cx="50.5" cy="50" r="50" fill="#FEC7E4" fill-opacity="0.125"/>
<path d="M38.5 62.5H33.5C33.1685 62.5 32.8505 62.3683 32.6161 62.1339C32.3817 61.8995 32.25 61.5815 32.25 61.25V55C32.25 54.6685 32.3817 54.3505 32.6161 54.1161C32.8505 53.8817 33.1685 53.75 33.5 53.75H38.5" stroke="#4D2B12" stroke-width="2.5" stroke-linecap="round" stroke-linejoin="round"/>
<path d="M48.5 55H53.5L63.9688 52.5922C64.3536 52.4867 64.7577 52.4714 65.1494 52.5475C65.5412 52.6236 65.9101 52.789 66.2276 53.0308C66.545 53.2727 66.8024 53.5845 66.9797 53.942C67.157 54.2995 67.2495 54.6931 67.25 55.0922C67.2502 55.5741 67.1161 56.0464 66.8627 56.4563C66.6093 56.8662 66.2467 57.1973 65.8156 57.4125L59.75 60L49.75 62.5H38.5V53.75L42.4062 49.8438C42.7554 49.4958 43.1697 49.2201 43.6255 49.0325C44.0813 48.8448 44.5696 48.7488 45.0625 48.75H52.875C53.7038 48.75 54.4987 49.0793 55.0847 49.6653C55.6708 50.2514 56 51.0462 56 51.875C56 52.7038 55.6708 53.4987 55.0847 54.0847C54.4987 54.6708 53.7038 55 52.875 55H48.5Z" stroke="#4D2B12" stroke-width="2.5" stroke-linecap="round" stroke-linejoin="round"/>
<path d="M46.1141 48.7504C44.5938 46.8317 43.5 44.7754 43.5 42.5004C43.5 39.1114 46.2609 36.2504 49.6656 36.2504C50.8825 36.2361 52.0759 36.5854 53.093 37.2535C54.1102 37.9216 54.9047 38.878 55.375 40.0004C55.8453 38.878 56.6398 37.9216 57.657 37.2535C58.6741 36.5854 59.8675 36.2361 61.0844 36.2504C64.4891 36.2504 67.25 39.1114 67.25 42.5004C67.25 47.0676 62.8469 51.1051 59.4031 53.6442" stroke="#4D2B12" stroke-width="2.5" stroke-linecap="round" stroke-linejoin="round"/>
</svg>
